<svg xmlns="http://www.w3.org/2000/svg" font-size="10px" font-family="sans-serif" fill="none" stroke="none" stroke-width="1.5" style="-webkit-touch-callout: none; -webkit-user-select: none; -khtml-user-select: none; -moz-user-select: none; -ms-user-select: none; user-select: none;" width="1178" height="306"><defs/><rect pointer-events="all" width="1178" height="306" fill="rgb(127,127,127)" fill-opacity="0.00001"/><g><g transform="translate(3,3)"><g transform="translate(829.96875,0)"><g clip-path="url(#3jj)"><clipPath id="3jj"><rect x="5" y="5" width="332.03125" height="15"/></clipPath><g transform="translate(5,5)"><g><rect cursor="pointer" width="133.015625" height="15" fill="rgb(200,200,200)" fill-opacity="0.0001"/><g><g><g><line shape-rendering="crispEdges" cursor="pointer" x1="0" y1="7.5" x2="15" y2="7.5" stroke="rgb(31,119,180)"/></g></g><g><text pointer-events="none" x="2" dy=".35em" transform="translate(15,7.5)" fill="rgb(0,0,0)">AverageBikesAvailable</text></g></g><rect cursor="pointer" x="138.015625" width="83" height="15" fill="rgb(200,200,200)" fill-opacity="0.0001"/><g transform="translate(138.015625,0)"><g><g><line shape-rendering="crispEdges" cursor="pointer" x1="0" y1="7.5" x2="15" y2="7.5" stroke="rgb(174,199,232)"/></g></g><g><text pointer-events="none" x="2" dy=".35em" transform="translate(15,7.5)" fill="rgb(0,0,0)">AverageLent</text></g></g><rect cursor="pointer" x="226.015625" width="106.015625" height="15" fill="rgb(200,200,200)" fill-opacity="0.0001"/><g transform="translate(226.015625,0)"><g><g><line shape-rendering="crispEdges" cursor="pointer" x1="0" y1="7.5" x2="15" y2="7.5" stroke="rgb(255,127,14)"/></g></g><g><text pointer-events="none" x="2" dy=".35em" transform="translate(15,7.5)" fill="rgb(0,0,0)">AverageReturned</text></g></g></g></g></g></g></g><g transform="translate(3,3)"><g transform="translate(0,30)"><g transform="translate(0,4)"><g transform="translate(27,0)"/></g><g transform="translate(0,4)"><g transform="translate(27,239)"><g transform="translate(57.25,0)"><text pointer-events="all" cursor="pointer" x="-3" dy=".35em" transform="translate(0,6) rotate(-90)" fill="rgb(102,102,102)" text-anchor="end" style="font: 9px sans-serif;">24</text></g><g transform="translate(171.75,0)"><text pointer-events="all" cursor="pointer" x="-3" dy=".35em" transform="translate(0,6) rotate(-90)" fill="rgb(102,102,102)" text-anchor="end" style="font: 9px sans-serif;">25</text></g><g transform="translate(286.25,0)"><text pointer-events="all" cursor="pointer" x="-3" dy=".35em" transform="translate(0,6) rotate(-90)" fill="rgb(102,102,102)" text-anchor="end" style="font: 9px sans-serif;">45</text></g><g transform="translate(400.75,0)"><text pointer-events="all" cursor="pointer" x="-3" dy=".35em" transform="translate(0,6) rotate(-90)" fill="rgb(102,102,102)" text-anchor="end" style="font: 9px sans-serif;">46</text></g><g transform="translate(515.25,0)"><text pointer-events="all" cursor="pointer" x="-3" dy=".35em" transform="translate(0,6) rotate(-90)" fill="rgb(102,102,102)" text-anchor="end" style="font: 9px sans-serif;">47</text></g><g transform="translate(629.75,0)"><text pointer-events="all" cursor="pointer" x="-3" dy=".35em" transform="translate(0,6) rotate(-90)" fill="rgb(102,102,102)" text-anchor="end" style="font: 9px sans-serif;">48</text></g><g transform="translate(744.25,0)"><text pointer-events="all" cursor="pointer" x="-3" dy=".35em" transform="translate(0,6) rotate(-90)" fill="rgb(102,102,102)" text-anchor="end" style="font: 9px sans-serif;">49</text></g><g transform="translate(858.75,0)"><text pointer-events="all" cursor="pointer" x="-3" dy=".35em" transform="translate(0,6) rotate(-90)" fill="rgb(102,102,102)" text-anchor="end" style="font: 9px sans-serif;">50</text></g><g transform="translate(973.25,0)"><text pointer-events="all" cursor="pointer" x="-3" dy=".35em" transform="translate(0,6) rotate(-90)" fill="rgb(102,102,102)" text-anchor="end" style="font: 9px sans-serif;">51</text></g><g transform="translate(1087.75,0)"><text pointer-events="all" cursor="pointer" x="-3" dy=".35em" transform="translate(0,6) rotate(-90)" fill="rgb(102,102,102)" text-anchor="end" style="font: 9px sans-serif;">52</text></g></g><g transform="translate(27,239)"><line shape-rendering="crispEdges" pointer-events="none" x1="0" y1="0" x2="1145" y2="0" stroke="rgb(102,102,102)" stroke-width="1" stroke-linecap="square"/></g></g><g transform="translate(0,4)"><g><g transform="translate(0,7.632)"><g><line shape-rendering="crispEdges" pointer-events="none" x1="21" y1="231.368" x2="27" y2="231.368" stroke="rgb(102,102,102)" stroke-width="1"/></g><g><text pointer-events="all" x="-3" dy=".35em" transform="translate(21,231.368)" fill="rgb(102,102,102)" text-anchor="end" style="font: 9px sans-serif;">0</text></g><g><line shape-rendering="crispEdges" pointer-events="none" x1="21" y1="192.80666666666667" x2="27" y2="192.80666666666667" stroke="rgb(102,102,102)" stroke-width="1"/></g><g><text pointer-events="all" x="-3" dy=".35em" transform="translate(21,192.80666666666667)" fill="rgb(102,102,102)" text-anchor="end" style="font: 9px sans-serif;">2</text></g><g><line shape-rendering="crispEdges" pointer-events="none" x1="21" y1="154.24533333333335" x2="27" y2="154.24533333333335" stroke="rgb(102,102,102)" stroke-width="1"/></g><g><text pointer-events="all" x="-3" dy=".35em" transform="translate(21,154.24533333333335)" fill="rgb(102,102,102)" text-anchor="end" style="font: 9px sans-serif;">4</text></g><g><line shape-rendering="crispEdges" pointer-events="none" x1="21" y1="115.684" x2="27" y2="115.684" stroke="rgb(102,102,102)" stroke-width="1"/></g><g><text pointer-events="all" x="-3" dy=".35em" transform="translate(21,115.684)" fill="rgb(102,102,102)" text-anchor="end" style="font: 9px sans-serif;">6</text></g><g><line shape-rendering="crispEdges" pointer-events="none" x1="21" y1="77.12266666666667" x2="27" y2="77.12266666666667" stroke="rgb(102,102,102)" stroke-width="1"/></g><g><text pointer-events="all" x="-3" dy=".35em" transform="translate(21,77.12266666666667)" fill="rgb(102,102,102)" text-anchor="end" style="font: 9px sans-serif;">8</text></g><g><line shape-rendering="crispEdges" pointer-events="none" x1="21" y1="38.56133333333332" x2="27" y2="38.56133333333332" stroke="rgb(102,102,102)" stroke-width="1"/></g><g><text pointer-events="all" x="-3" dy=".35em" transform="translate(21,38.56133333333332)" fill="rgb(102,102,102)" text-anchor="end" style="font: 9px sans-serif;">10</text></g><g><line shape-rendering="crispEdges" pointer-events="none" x1="21" y1="0" x2="27" y2="0" stroke="rgb(102,102,102)" stroke-width="1"/></g><g><text pointer-events="all" x="-3" dy=".35em" transform="translate(21,0)" fill="rgb(102,102,102)" text-anchor="end" style="font: 9px sans-serif;">12</text></g></g><g transform="translate(0,7.632)"><line shape-rendering="crispEdges" pointer-events="none" x1="27" y1="-7.632000000000005" x2="27" y2="231.368" stroke="rgb(102,102,102)" stroke-width="1" stroke-linecap="square"/></g></g></g><g transform="translate(0,4)"><g transform="translate(27,0)"><g transform="translate(0,7.632)"><g><g><g pointer-events="none"/><g/></g></g><g><g><g pointer-events="none"><path pointer-events="none" cursor="pointer" d="M57.25,28.909431600000005C76.1429750784145,30.805858178107414,95.6070249215855,32.75960772189258,114.5,34.65603429999999C133.39297507841448,36.5524608781074,152.92913706429687,42.6252299403463,171.75,40.40263699999997C190.57086293570313,38.18004405965364,211.85836030090027,26.90371525053895,229,21.134502766666657C246.14163969909973,15.365290282794362,267.1796412917439,2.3637926524996185,286.25,1.8663685333333433C305.3203587082561,1.368944414167068,325.84463230680024,13.12684609956309,343.5,18.14792750000001C361.15536769319976,23.16900890043693,381.76457928437884,33.066067147222526,400.75,34.429486466666674C419.73542071562116,35.79290578611082,438.91909310286024,35.601559331412254,458,35.81673043333333C477.08090689713976,36.03190153525441,496.16669280370473,37.1816409916996,515.25,37.20397440000002C534.3333071962953,37.22630780830044,553.4258070833611,36.36827875420364,572.5,35.95073106666666C591.5741929166389,35.53318337912969,610.6797587418943,35.19715665688172,629.75,34.69748773333333C648.8202412581057,34.19781880978495,667.9344167175567,33.53239387202918,687,32.950659333333334C706.0655832824433,32.368924794637486,725.1772892890972,31.653944479684245,744.25,31.203830933333307C763.3227107109028,30.75371738698237,782.4219793477099,30.566837589296828,801.5,30.248473899999993C820.5780206522901,29.93011021070316,839.6918444847851,28.60041002157642,858.75,29.29311686666665C877.8081555152149,29.985823711756883,897.0679159659664,32.71802837300458,916,34.41020580000003C934.9320840340336,36.10238322699548,954.1674459460402,39.64923997008968,973.25,39.52729473333332C992.3325540539598,39.40534949657696,1011.6137845599019,35.607963232064186,1030.5,33.6785045C1049.386215440098,31.749045767935815,1068.863784559902,29.75917299873087,1087.75,27.829714266666684" stroke="rgb(31,119,180)"/></g><g><path cursor="pointer" d="M57.25,28.909431600000005C76.1429750784145,30.805858178107414,95.6070249215855,32.75960772189258,114.5,34.65603429999999" shape-rendering="crispEdges" fill="rgb(127,127,127)" fill-opacity="0.005" stroke="rgb(127,127,127)" stroke-opacity="0.005" stroke-width="10"/><path cursor="pointer" d="M114.5,34.65603429999999C133.39297507841448,36.5524608781074,152.92913706429687,42.6252299403463,171.75,40.40263699999997" shape-rendering="crispEdges" fill="rgb(127,127,127)" fill-opacity="0.005" stroke="rgb(127,127,127)" stroke-opacity="0.005" stroke-width="10"/><path cursor="pointer" d="M171.75,40.40263699999997C190.57086293570313,38.18004405965364,211.85836030090027,26.90371525053895,229,21.134502766666657" shape-rendering="crispEdges" fill="rgb(127,127,127)" fill-opacity="0.005" stroke="rgb(127,127,127)" stroke-opacity="0.005" stroke-width="10"/><path cursor="pointer" d="M229,21.134502766666657C246.14163969909973,15.365290282794362,267.1796412917439,2.3637926524996185,286.25,1.8663685333333433" shape-rendering="crispEdges" fill="rgb(127,127,127)" fill-opacity="0.005" stroke="rgb(127,127,127)" stroke-opacity="0.005" stroke-width="10"/><path cursor="pointer" d="M286.25,1.8663685333333433C305.3203587082561,1.368944414167068,325.84463230680024,13.12684609956309,343.5,18.14792750000001" shape-rendering="crispEdges" fill="rgb(127,127,127)" fill-opacity="0.005" stroke="rgb(127,127,127)" stroke-opacity="0.005" stroke-width="10"/><path cursor="pointer" d="M343.5,18.14792750000001C361.15536769319976,23.16900890043693,381.76457928437884,33.066067147222526,400.75,34.429486466666674" shape-rendering="crispEdges" fill="rgb(127,127,127)" fill-opacity="0.005" stroke="rgb(127,127,127)" stroke-opacity="0.005" stroke-width="10"/><path cursor="pointer" d="M400.75,34.429486466666674C419.73542071562116,35.79290578611082,438.91909310286024,35.601559331412254,458,35.81673043333333" shape-rendering="crispEdges" fill="rgb(127,127,127)" fill-opacity="0.005" stroke="rgb(127,127,127)" stroke-opacity="0.005" stroke-width="10"/><path cursor="pointer" d="M458,35.81673043333333C477.08090689713976,36.03190153525441,496.16669280370473,37.1816409916996,515.25,37.20397440000002" shape-rendering="crispEdges" fill="rgb(127,127,127)" fill-opacity="0.005" stroke="rgb(127,127,127)" stroke-opacity="0.005" stroke-width="10"/><path cursor="pointer" d="M515.25,37.20397440000002C534.3333071962953,37.22630780830044,553.4258070833611,36.36827875420364,572.5,35.95073106666666" shape-rendering="crispEdges" fill="rgb(127,127,127)" fill-opacity="0.005" stroke="rgb(127,127,127)" stroke-opacity="0.005" stroke-width="10"/><path cursor="pointer" d="M572.5,35.95073106666666C591.5741929166389,35.53318337912969,610.6797587418943,35.19715665688172,629.75,34.69748773333333" shape-rendering="crispEdges" fill="rgb(127,127,127)" fill-opacity="0.005" stroke="rgb(127,127,127)" stroke-opacity="0.005" stroke-width="10"/><path cursor="pointer" d="M629.75,34.69748773333333C648.8202412581057,34.19781880978495,667.9344167175567,33.53239387202918,687,32.950659333333334" shape-rendering="crispEdges" fill="rgb(127,127,127)" fill-opacity="0.005" stroke="rgb(127,127,127)" stroke-opacity="0.005" stroke-width="10"/><path cursor="pointer" d="M687,32.950659333333334C706.0655832824433,32.368924794637486,725.1772892890972,31.653944479684245,744.25,31.203830933333307" shape-rendering="crispEdges" fill="rgb(127,127,127)" fill-opacity="0.005" stroke="rgb(127,127,127)" stroke-opacity="0.005" stroke-width="10"/><path cursor="pointer" d="M744.25,31.203830933333307C763.3227107109028,30.75371738698237,782.4219793477099,30.566837589296828,801.5,30.248473899999993" shape-rendering="crispEdges" fill="rgb(127,127,127)" fill-opacity="0.005" stroke="rgb(127,127,127)" stroke-opacity="0.005" stroke-width="10"/><path cursor="pointer" d="M801.5,30.248473899999993C820.5780206522901,29.93011021070316,839.6918444847851,28.60041002157642,858.75,29.29311686666665" shape-rendering="crispEdges" fill="rgb(127,127,127)" fill-opacity="0.005" stroke="rgb(127,127,127)" stroke-opacity="0.005" stroke-width="10"/><path cursor="pointer" d="M858.75,29.29311686666665C877.8081555152149,29.985823711756883,897.0679159659664,32.71802837300458,916,34.41020580000003" shape-rendering="crispEdges" fill="rgb(127,127,127)" fill-opacity="0.005" stroke="rgb(127,127,127)" stroke-opacity="0.005" stroke-width="10"/><path cursor="pointer" d="M916,34.41020580000003C934.9320840340336,36.10238322699548,954.1674459460402,39.64923997008968,973.25,39.52729473333332" shape-rendering="crispEdges" fill="rgb(127,127,127)" fill-opacity="0.005" stroke="rgb(127,127,127)" stroke-opacity="0.005" stroke-width="10"/><path cursor="pointer" d="M973.25,39.52729473333332C992.3325540539598,39.40534949657696,1011.6137845599019,35.607963232064186,1030.5,33.6785045" shape-rendering="crispEdges" fill="rgb(127,127,127)" fill-opacity="0.005" stroke="rgb(127,127,127)" stroke-opacity="0.005" stroke-width="10"/><path cursor="pointer" d="M1030.5,33.6785045C1049.386215440098,31.749045767935815,1068.863784559902,29.75917299873087,1087.75,27.829714266666684" shape-rendering="crispEdges" fill="rgb(127,127,127)" fill-opacity="0.005" stroke="rgb(127,127,127)" stroke-opacity="0.005" stroke-width="10"/></g></g></g><g><circle cursor="pointer" fill="rgb(127,127,127)" fill-opacity="0.00001" stroke="rgb(127,127,127)" stroke-opacity="0.00001" cx="57.25" cy="28.909431600000005" r="3.4641016151377544"/><circle cursor="pointer" fill="rgb(127,127,127)" fill-opacity="0.00001" stroke="rgb(127,127,127)" stroke-opacity="0.00001" cx="171.75" cy="40.40263699999997" r="3.4641016151377544"/><circle cursor="pointer" fill="rgb(127,127,127)" fill-opacity="0.00001" stroke="rgb(127,127,127)" stroke-opacity="0.00001" cx="286.25" cy="1.8663685333333433" r="3.4641016151377544"/><circle cursor="pointer" fill="rgb(127,127,127)" fill-opacity="0.00001" stroke="rgb(127,127,127)" stroke-opacity="0.00001" cx="400.75" cy="34.429486466666674" r="3.4641016151377544"/><circle cursor="pointer" fill="rgb(127,127,127)" fill-opacity="0.00001" stroke="rgb(127,127,127)" stroke-opacity="0.00001" cx="515.25" cy="37.20397440000002" r="3.4641016151377544"/><circle cursor="pointer" fill="rgb(127,127,127)" fill-opacity="0.00001" stroke="rgb(127,127,127)" stroke-opacity="0.00001" cx="629.75" cy="34.69748773333333" r="3.4641016151377544"/><circle cursor="pointer" fill="rgb(127,127,127)" fill-opacity="0.00001" stroke="rgb(127,127,127)" stroke-opacity="0.00001" cx="744.25" cy="31.203830933333307" r="3.4641016151377544"/><circle cursor="pointer" fill="rgb(127,127,127)" fill-opacity="0.00001" stroke="rgb(127,127,127)" stroke-opacity="0.00001" cx="858.75" cy="29.29311686666665" r="3.4641016151377544"/><circle cursor="pointer" fill="rgb(127,127,127)" fill-opacity="0.00001" stroke="rgb(127,127,127)" stroke-opacity="0.00001" cx="973.25" cy="39.52729473333332" r="3.4641016151377544"/><circle cursor="pointer" fill="rgb(127,127,127)" fill-opacity="0.00001" stroke="rgb(127,127,127)" stroke-opacity="0.00001" cx="1087.75" cy="27.829714266666684" r="3.4641016151377544"/></g><g><g><g pointer-events="none"/><g/></g></g><g><g><g pointer-events="none"><path pointer-events="none" cursor="pointer" d="M57.25,179.9695988C75.82410439011903,176.89413598121445,95.92589560988097,173.56572185211888,114.5,170.49025903333333C133.07410439011903,167.41479621454778,152.66680004448986,160.96046854150313,171.75,161.01091926666666C190.83319995551014,161.0613699918302,210.4580002988568,167.624778629519,229,170.79296549999998C247.5419997011432,173.96115237048096,268.14873863815626,184.79125904961757,286.25,180.57501173333333C304.35126136184374,176.3587644170491,329.9215003598795,152.76864018068812,343.5,144.1229833333333C357.0784996401205,135.4773264859785,381.811620807357,109.32781838031288,400.75,107.67095493333332C419.688379192643,106.01409148635376,442.27032901869956,126.84265538876933,458,134.10571296666666C473.72967098130044,141.36877054456397,496.193511078035,159.82523661334244,515.25,160.54047099999997C534.306488921965,161.2557053866575,553.4167416992465,161.21987179338234,572.5,161.25771179999998C591.5832583007535,161.29555180661762,610.6667835948936,161.92771525610314,629.75,161.9749526C648.8332164051064,162.02218994389685,667.9177623560337,161.68573429735403,687,161.5411376C706.0822376439663,161.396540902646,725.1679525670642,161.26396746068784,744.25,161.1073226C763.3320474329358,160.95067773931217,782.418157990718,160.76989774931238,801.5,160.60120510000002C820.581842009282,160.43251245068765,839.6730757857448,160.44475355335123,858.75,160.0950876C877.8269242142552,159.74542164664877,896.9314227634713,159.03295506979305,916,158.5025045333333C935.0685772365287,157.97205399687357,954.2304670949452,155.80835242888477,973.25,156.90992146666667C992.2695329050548,158.01149050444857,1011.8025146241201,162.44812882434604,1030.5,165.13408983333335C1049.1974853758798,167.82005084232065,1069.0525146241202,170.6722971910127,1087.75,173.3582582" stroke="rgb(174,199,232)"/></g><g><path cursor="pointer" d="M57.25,179.9695988C75.82410439011903,176.89413598121445,95.92589560988097,173.56572185211888,114.5,170.49025903333333" shape-rendering="crispEdges" fill="rgb(127,127,127)" fill-opacity="0.005" stroke="rgb(127,127,127)" stroke-opacity="0.005" stroke-width="10"/><path cursor="pointer" d="M114.5,170.49025903333333C133.07410439011903,167.41479621454778,152.66680004448986,160.96046854150313,171.75,161.01091926666666" shape-rendering="crispEdges" fill="rgb(127,127,127)" fill-opacity="0.005" stroke="rgb(127,127,127)" stroke-opacity="0.005" stroke-width="10"/><path cursor="pointer" d="M171.75,161.01091926666666C190.83319995551014,161.0613699918302,210.4580002988568,167.624778629519,229,170.79296549999998" shape-rendering="crispEdges" fill="rgb(127,127,127)" fill-opacity="0.005" stroke="rgb(127,127,127)" stroke-opacity="0.005" stroke-width="10"/><path cursor="pointer" d="M229,170.79296549999998C247.5419997011432,173.96115237048096,268.14873863815626,184.79125904961757,286.25,180.57501173333333" shape-rendering="crispEdges" fill="rgb(127,127,127)" fill-opacity="0.005" stroke="rgb(127,127,127)" stroke-opacity="0.005" stroke-width="10"/><path cursor="pointer" d="M286.25,180.57501173333333C304.35126136184374,176.3587644170491,329.9215003598795,152.76864018068812,343.5,144.1229833333333" shape-rendering="crispEdges" fill="rgb(127,127,127)" fill-opacity="0.005" stroke="rgb(127,127,127)" stroke-opacity="0.005" stroke-width="10"/><path cursor="pointer" d="M343.5,144.1229833333333C357.0784996401205,135.4773264859785,381.811620807357,109.32781838031288,400.75,107.67095493333332" shape-rendering="crispEdges" fill="rgb(127,127,127)" fill-opacity="0.005" stroke="rgb(127,127,127)" stroke-opacity="0.005" stroke-width="10"/><path cursor="pointer" d="M400.75,107.67095493333332C419.688379192643,106.01409148635376,442.27032901869956,126.84265538876933,458,134.10571296666666" shape-rendering="crispEdges" fill="rgb(127,127,127)" fill-opacity="0.005" stroke="rgb(127,127,127)" stroke-opacity="0.005" stroke-width="10"/><path cursor="pointer" d="M458,134.10571296666666C473.72967098130044,141.36877054456397,496.193511078035,159.82523661334244,515.25,160.54047099999997" shape-rendering="crispEdges" fill="rgb(127,127,127)" fill-opacity="0.005" stroke="rgb(127,127,127)" stroke-opacity="0.005" stroke-width="10"/><path cursor="pointer" d="M515.25,160.54047099999997C534.306488921965,161.2557053866575,553.4167416992465,161.21987179338234,572.5,161.25771179999998" shape-rendering="crispEdges" fill="rgb(127,127,127)" fill-opacity="0.005" stroke="rgb(127,127,127)" stroke-opacity="0.005" stroke-width="10"/><path cursor="pointer" d="M572.5,161.25771179999998C591.5832583007535,161.29555180661762,610.6667835948936,161.92771525610314,629.75,161.9749526" shape-rendering="crispEdges" fill="rgb(127,127,127)" fill-opacity="0.005" stroke="rgb(127,127,127)" stroke-opacity="0.005" stroke-width="10"/><path cursor="pointer" d="M629.75,161.9749526C648.8332164051064,162.02218994389685,667.9177623560337,161.68573429735403,687,161.5411376" shape-rendering="crispEdges" fill="rgb(127,127,127)" fill-opacity="0.005" stroke="rgb(127,127,127)" stroke-opacity="0.005" stroke-width="10"/><path cursor="pointer" d="M687,161.5411376C706.0822376439663,161.396540902646,725.1679525670642,161.26396746068784,744.25,161.1073226" shape-rendering="crispEdges" fill="rgb(127,127,127)" fill-opacity="0.005" stroke="rgb(127,127,127)" stroke-opacity="0.005" stroke-width="10"/><path cursor="pointer" d="M744.25,161.1073226C763.3320474329358,160.95067773931217,782.418157990718,160.76989774931238,801.5,160.60120510000002" shape-rendering="crispEdges" fill="rgb(127,127,127)" fill-opacity="0.005" stroke="rgb(127,127,127)" stroke-opacity="0.005" stroke-width="10"/><path cursor="pointer" d="M801.5,160.60120510000002C820.581842009282,160.43251245068765,839.6730757857448,160.44475355335123,858.75,160.0950876" shape-rendering="crispEdges" fill="rgb(127,127,127)" fill-opacity="0.005" stroke="rgb(127,127,127)" stroke-opacity="0.005" stroke-width="10"/><path cursor="pointer" d="M858.75,160.0950876C877.8269242142552,159.74542164664877,896.9314227634713,159.03295506979305,916,158.5025045333333" shape-rendering="crispEdges" fill="rgb(127,127,127)" fill-opacity="0.005" stroke="rgb(127,127,127)" stroke-opacity="0.005" stroke-width="10"/><path cursor="pointer" d="M916,158.5025045333333C935.0685772365287,157.97205399687357,954.2304670949452,155.80835242888477,973.25,156.90992146666667" shape-rendering="crispEdges" fill="rgb(127,127,127)" fill-opacity="0.005" stroke="rgb(127,127,127)" stroke-opacity="0.005" stroke-width="10"/><path cursor="pointer" d="M973.25,156.90992146666667C992.2695329050548,158.01149050444857,1011.8025146241201,162.44812882434604,1030.5,165.13408983333335" shape-rendering="crispEdges" fill="rgb(127,127,127)" fill-opacity="0.005" stroke="rgb(127,127,127)" stroke-opacity="0.005" stroke-width="10"/><path cursor="pointer" d="M1030.5,165.13408983333335C1049.1974853758798,167.82005084232065,1069.0525146241202,170.6722971910127,1087.75,173.3582582" shape-rendering="crispEdges" fill="rgb(127,127,127)" fill-opacity="0.005" stroke="rgb(127,127,127)" stroke-opacity="0.005" stroke-width="10"/></g></g></g><g><circle cursor="pointer" fill="rgb(127,127,127)" fill-opacity="0.00001" stroke="rgb(127,127,127)" stroke-opacity="0.00001" cx="57.25" cy="179.9695988" r="3.4641016151377544"/><circle cursor="pointer" fill="rgb(127,127,127)" fill-opacity="0.00001" stroke="rgb(127,127,127)" stroke-opacity="0.00001" cx="171.75" cy="161.01091926666666" r="3.4641016151377544"/><circle cursor="pointer" fill="rgb(127,127,127)" fill-opacity="0.00001" stroke="rgb(127,127,127)" stroke-opacity="0.00001" cx="286.25" cy="180.57501173333333" r="3.4641016151377544"/><circle cursor="pointer" fill="rgb(127,127,127)" fill-opacity="0.00001" stroke="rgb(127,127,127)" stroke-opacity="0.00001" cx="400.75" cy="107.67095493333332" r="3.4641016151377544"/><circle cursor="pointer" fill="rgb(127,127,127)" fill-opacity="0.00001" stroke="rgb(127,127,127)" stroke-opacity="0.00001" cx="515.25" cy="160.54047099999997" r="3.4641016151377544"/><circle cursor="pointer" fill="rgb(127,127,127)" fill-opacity="0.00001" stroke="rgb(127,127,127)" stroke-opacity="0.00001" cx="629.75" cy="161.9749526" r="3.4641016151377544"/><circle cursor="pointer" fill="rgb(127,127,127)" fill-opacity="0.00001" stroke="rgb(127,127,127)" stroke-opacity="0.00001" cx="744.25" cy="161.1073226" r="3.4641016151377544"/><circle cursor="pointer" fill="rgb(127,127,127)" fill-opacity="0.00001" stroke="rgb(127,127,127)" stroke-opacity="0.00001" cx="858.75" cy="160.0950876" r="3.4641016151377544"/><circle cursor="pointer" fill="rgb(127,127,127)" fill-opacity="0.00001" stroke="rgb(127,127,127)" stroke-opacity="0.00001" cx="973.25" cy="156.90992146666667" r="3.4641016151377544"/><circle cursor="pointer" fill="rgb(127,127,127)" fill-opacity="0.00001" stroke="rgb(127,127,127)" stroke-opacity="0.00001" cx="1087.75" cy="173.3582582" r="3.4641016151377544"/></g><g><g><g pointer-events="none"/><g/></g></g><g><g><g pointer-events="none"><path pointer-events="none" cursor="pointer" d="M57.25,180.4439032C75.38223350370762,176.2911253109106,96.36776649629238,171.48486372242274,114.5,167.33208583333334C132.63223350370762,163.17930794424393,152.6668439388,154.2784312708103,171.75,154.22026846666665C190.8331560612,154.162105662523,210.82017702077476,162.93024772602644,229,166.98310576666665C247.17982297922524,171.03596380730687,267.92582191276995,183.47567441429092,286.25,179.74594306666665C304.57417808723005,176.0162117190424,329.83897928812837,152.28424417066714,343.5,143.67759993333334C357.16102071187163,135.07095569599954,381.77815836197044,109.06363047524962,400.75,107.60925679999998C419.72184163802956,106.15488312475034,442.4501853568805,127.48754915373264,458,134.9000764333333C473.5498146431195,142.312603712934,496.17595321907055,161.77002537989375,515.25,162.19089606666665C534.3240467809295,162.61176675343955,553.4166758025868,161.78281742846718,572.5,161.7696135C591.5833241974132,161.7564095715328,610.6678568283244,161.4990320784811,629.75,161.34833093333333C648.8321431716756,161.19762978818557,667.9180247671351,161.02633234259713,687,160.86535023333334C706.0819752328649,160.70436812406956,725.1674397981525,160.50383281223867,744.25,160.38236953333333C763.3325602018475,160.260906254428,782.4169091646874,160.20456758517741,801.5,160.13654103333334C820.5830908353126,160.06851448148927,839.6695904416331,160.12690487828783,858.75,159.89071253333333C877.8304095583669,159.65452018837883,896.929094712075,158.91607891538715,916,158.429238C935.070905287925,157.94239708461285,954.2404584846408,155.7833865725688,973.25,156.96776346666667C992.2595415153592,158.15214036076455,1011.8373417054695,162.76113632627656,1030.5,165.56308466666667C1049.1626582945305,168.36503300705678,1069.0873417054695,171.35645752627656,1087.75,174.15840586666667" stroke="rgb(255,127,14)"/></g><g><path cursor="pointer" d="M57.25,180.4439032C75.38223350370762,176.2911253109106,96.36776649629238,171.48486372242274,114.5,167.33208583333334" shape-rendering="crispEdges" fill="rgb(127,127,127)" fill-opacity="0.005" stroke="rgb(127,127,127)" stroke-opacity="0.005" stroke-width="10"/><path cursor="pointer" d="M114.5,167.33208583333334C132.63223350370762,163.17930794424393,152.6668439388,154.2784312708103,171.75,154.22026846666665" shape-rendering="crispEdges" fill="rgb(127,127,127)" fill-opacity="0.005" stroke="rgb(127,127,127)" stroke-opacity="0.005" stroke-width="10"/><path cursor="pointer" d="M171.75,154.22026846666665C190.8331560612,154.162105662523,210.82017702077476,162.93024772602644,229,166.98310576666665" shape-rendering="crispEdges" fill="rgb(127,127,127)" fill-opacity="0.005" stroke="rgb(127,127,127)" stroke-opacity="0.005" stroke-width="10"/><path cursor="pointer" d="M229,166.98310576666665C247.17982297922524,171.03596380730687,267.92582191276995,183.47567441429092,286.25,179.74594306666665" shape-rendering="crispEdges" fill="rgb(127,127,127)" fill-opacity="0.005" stroke="rgb(127,127,127)" stroke-opacity="0.005" stroke-width="10"/><path cursor="pointer" d="M286.25,179.74594306666665C304.57417808723005,176.0162117190424,329.83897928812837,152.28424417066714,343.5,143.67759993333334" shape-rendering="crispEdges" fill="rgb(127,127,127)" fill-opacity="0.005" stroke="rgb(127,127,127)" stroke-opacity="0.005" stroke-width="10"/><path cursor="pointer" d="M343.5,143.67759993333334C357.16102071187163,135.07095569599954,381.77815836197044,109.06363047524962,400.75,107.60925679999998" shape-rendering="crispEdges" fill="rgb(127,127,127)" fill-opacity="0.005" stroke="rgb(127,127,127)" stroke-opacity="0.005" stroke-width="10"/><path cursor="pointer" d="M400.75,107.60925679999998C419.72184163802956,106.15488312475034,442.4501853568805,127.48754915373264,458,134.9000764333333" shape-rendering="crispEdges" fill="rgb(127,127,127)" fill-opacity="0.005" stroke="rgb(127,127,127)" stroke-opacity="0.005" stroke-width="10"/><path cursor="pointer" d="M458,134.9000764333333C473.5498146431195,142.312603712934,496.17595321907055,161.77002537989375,515.25,162.19089606666665" shape-rendering="crispEdges" fill="rgb(127,127,127)" fill-opacity="0.005" stroke="rgb(127,127,127)" stroke-opacity="0.005" stroke-width="10"/><path cursor="pointer" d="M515.25,162.19089606666665C534.3240467809295,162.61176675343955,553.4166758025868,161.78281742846718,572.5,161.7696135" shape-rendering="crispEdges" fill="rgb(127,127,127)" fill-opacity="0.005" stroke="rgb(127,127,127)" stroke-opacity="0.005" stroke-width="10"/><path cursor="pointer" d="M572.5,161.7696135C591.5833241974132,161.7564095715328,610.6678568283244,161.4990320784811,629.75,161.34833093333333" shape-rendering="crispEdges" fill="rgb(127,127,127)" fill-opacity="0.005" stroke="rgb(127,127,127)" stroke-opacity="0.005" stroke-width="10"/><path cursor="pointer" d="M629.75,161.34833093333333C648.8321431716756,161.19762978818557,667.9180247671351,161.02633234259713,687,160.86535023333334" shape-rendering="crispEdges" fill="rgb(127,127,127)" fill-opacity="0.005" stroke="rgb(127,127,127)" stroke-opacity="0.005" stroke-width="10"/><path cursor="pointer" d="M687,160.86535023333334C706.0819752328649,160.70436812406956,725.1674397981525,160.50383281223867,744.25,160.38236953333333" shape-rendering="crispEdges" fill="rgb(127,127,127)" fill-opacity="0.005" stroke="rgb(127,127,127)" stroke-opacity="0.005" stroke-width="10"/><path cursor="pointer" d="M744.25,160.38236953333333C763.3325602018475,160.260906254428,782.4169091646874,160.20456758517741,801.5,160.13654103333334" shape-rendering="crispEdges" fill="rgb(127,127,127)" fill-opacity="0.005" stroke="rgb(127,127,127)" stroke-opacity="0.005" stroke-width="10"/><path cursor="pointer" d="M801.5,160.13654103333334C820.5830908353126,160.06851448148927,839.6695904416331,160.12690487828783,858.75,159.89071253333333" shape-rendering="crispEdges" fill="rgb(127,127,127)" fill-opacity="0.005" stroke="rgb(127,127,127)" stroke-opacity="0.005" stroke-width="10"/><path cursor="pointer" d="M858.75,159.89071253333333C877.8304095583669,159.65452018837883,896.929094712075,158.91607891538715,916,158.429238" shape-rendering="crispEdges" fill="rgb(127,127,127)" fill-opacity="0.005" stroke="rgb(127,127,127)" stroke-opacity="0.005" stroke-width="10"/><path cursor="pointer" d="M916,158.429238C935.070905287925,157.94239708461285,954.2404584846408,155.7833865725688,973.25,156.96776346666667" shape-rendering="crispEdges" fill="rgb(127,127,127)" fill-opacity="0.005" stroke="rgb(127,127,127)" stroke-opacity="0.005" stroke-width="10"/><path cursor="pointer" d="M973.25,156.96776346666667C992.2595415153592,158.15214036076455,1011.8373417054695,162.76113632627656,1030.5,165.56308466666667" shape-rendering="crispEdges" fill="rgb(127,127,127)" fill-opacity="0.005" stroke="rgb(127,127,127)" stroke-opacity="0.005" stroke-width="10"/><path cursor="pointer" d="M1030.5,165.56308466666667C1049.1626582945305,168.36503300705678,1069.0873417054695,171.35645752627656,1087.75,174.15840586666667" shape-rendering="crispEdges" fill="rgb(127,127,127)" fill-opacity="0.005" stroke="rgb(127,127,127)" stroke-opacity="0.005" stroke-width="10"/></g></g></g><g><circle cursor="pointer" fill="rgb(127,127,127)" fill-opacity="0.00001" stroke="rgb(127,127,127)" stroke-opacity="0.00001" cx="57.25" cy="180.4439032" r="3.4641016151377544"/><circle cursor="pointer" fill="rgb(127,127,127)" fill-opacity="0.00001" stroke="rgb(127,127,127)" stroke-opacity="0.00001" cx="171.75" cy="154.22026846666665" r="3.4641016151377544"/><circle cursor="pointer" fill="rgb(127,127,127)" fill-opacity="0.00001" stroke="rgb(127,127,127)" stroke-opacity="0.00001" cx="286.25" cy="179.74594306666665" r="3.4641016151377544"/><circle cursor="pointer" fill="rgb(127,127,127)" fill-opacity="0.00001" stroke="rgb(127,127,127)" stroke-opacity="0.00001" cx="400.75" cy="107.60925679999998" r="3.4641016151377544"/><circle cursor="pointer" fill="rgb(127,127,127)" fill-opacity="0.00001" stroke="rgb(127,127,127)" stroke-opacity="0.00001" cx="515.25" cy="162.19089606666665" r="3.4641016151377544"/><circle cursor="pointer" fill="rgb(127,127,127)" fill-opacity="0.00001" stroke="rgb(127,127,127)" stroke-opacity="0.00001" cx="629.75" cy="161.34833093333333" r="3.4641016151377544"/><circle cursor="pointer" fill="rgb(127,127,127)" fill-opacity="0.00001" stroke="rgb(127,127,127)" stroke-opacity="0.00001" cx="744.25" cy="160.38236953333333" r="3.4641016151377544"/><circle cursor="pointer" fill="rgb(127,127,127)" fill-opacity="0.00001" stroke="rgb(127,127,127)" stroke-opacity="0.00001" cx="858.75" cy="159.89071253333333" r="3.4641016151377544"/><circle cursor="pointer" fill="rgb(127,127,127)" fill-opacity="0.00001" stroke="rgb(127,127,127)" stroke-opacity="0.00001" cx="973.25" cy="156.96776346666667" r="3.4641016151377544"/><circle cursor="pointer" fill="rgb(127,127,127)" fill-opacity="0.00001" stroke="rgb(127,127,127)" stroke-opacity="0.00001" cx="1087.75" cy="174.15840586666667" r="3.4641016151377544"/></g></g></g></g></g></g></g><g/><rect pointer-events="stroke" width="1178" height="306" stroke-opacity="0"/></svg>