<svg xmlns="http://www.w3.org/2000/svg" font-size="10px" font-family="sans-serif" fill="none" stroke="none" stroke-width="1.5" style="-webkit-touch-callout: none; -webkit-user-select: none; -khtml-user-select: none; -moz-user-select: none; -ms-user-select: none; user-select: none;" width="1438" height="636"><defs/><rect pointer-events="all" width="1438" height="636" fill="rgb(127,127,127)" fill-opacity="0.00001"/><g><g transform="translate(3,3)"><g transform="translate(216,30)"><g><g transform="translate(60,0)"><g transform="translate(4,4)"><text pointer-events="none" dy=".35em" transform="translate(34,8.5)" fill="rgb(0,0,0)" text-anchor="middle" style="font: 14px sans-serif;">Eixample</text></g></g></g><g><g transform="translate(0,25)"><g transform="translate(0,4)"/><g transform="translate(0,4)"><g transform="translate(54,0)"><g><g><rect shape-rendering="crispEdges" cursor="pointer" x="7.100000000000001" y="14.655526666666674" width="57.51" height="88.34447333333333" fill="rgb(31,119,180)"/></g><g><rect shape-rendering="crispEdges" cursor="pointer" x="77.38999999999999" y="14.604026666666655" width="57.51" height="88.39597333333334" fill="rgb(174,199,232)"/></g></g></g></g><g transform="translate(0,4)"><g transform="translate(54,103)"><g transform="translate(71,0)"/></g><g transform="translate(54,103)"><line shape-rendering="crispEdges" pointer-events="none" x1="0" y1="0" x2="142" y2="0" stroke="rgb(102,102,102)" stroke-width="1" stroke-linecap="square"/></g></g><g transform="translate(0,4)"><g><g><line shape-rendering="crispEdges" pointer-events="none" x1="48" y1="103" x2="54" y2="103" stroke="rgb(102,102,102)" stroke-width="1"/></g><g><text pointer-events="all" x="-3" dy=".35em" transform="translate(48,103)" fill="rgb(102,102,102)" text-anchor="end" style="font: 9px sans-serif;">0</text></g><g><line shape-rendering="crispEdges" pointer-events="none" x1="48" y1="68.66666666666667" x2="54" y2="68.66666666666667" stroke="rgb(102,102,102)" stroke-width="1"/></g><g><text pointer-events="all" x="-3" dy=".35em" transform="translate(48,68.66666666666667)" fill="rgb(102,102,102)" text-anchor="end" style="font: 9px sans-serif;">50,000</text></g><g><line shape-rendering="crispEdges" pointer-events="none" x1="48" y1="34.33333333333334" x2="54" y2="34.33333333333334" stroke="rgb(102,102,102)" stroke-width="1"/></g><g><text pointer-events="all" x="-3" dy=".35em" transform="translate(48,34.33333333333334)" fill="rgb(102,102,102)" text-anchor="end" style="font: 9px sans-serif;">100,000</text></g><g><line shape-rendering="crispEdges" pointer-events="none" x1="48" y1="0" x2="54" y2="0" stroke="rgb(102,102,102)" stroke-width="1"/></g><g><text pointer-events="all" x="-3" dy=".35em" transform="translate(48,0)" fill="rgb(102,102,102)" text-anchor="end" style="font: 9px sans-serif;">150,000</text></g></g><g><line shape-rendering="crispEdges" pointer-events="none" x1="54" y1="0" x2="54" y2="103" stroke="rgb(102,102,102)" stroke-width="1" stroke-linecap="square"/></g></g></g></g></g><g transform="translate(216,30)"><g transform="translate(204,0)"><g transform="translate(55,0)"><g transform="translate(4,4)"><text pointer-events="none" dy=".35em" transform="translate(37,8.5)" fill="rgb(0,0,0)" text-anchor="middle" style="font: 14px sans-serif;">Sant Marti</text></g></g></g><g transform="translate(204,0)"><g transform="translate(0,25)"><g transform="translate(0,4)"/><g transform="translate(0,4)"><g transform="translate(54,0)"><g><g><rect shape-rendering="crispEdges" cursor="pointer" x="6.899999999999999" y="46.84646" width="55.89" height="56.15354" fill="rgb(31,119,180)"/></g><g><rect shape-rendering="crispEdges" cursor="pointer" x="75.21000000000001" y="47.00988666666666" width="55.89" height="55.99011333333334" fill="rgb(174,199,232)"/></g></g></g></g><g transform="translate(0,4)"><g transform="translate(54,103)"><g transform="translate(69,0)"/></g><g transform="translate(54,103)"><line shape-rendering="crispEdges" pointer-events="none" x1="0" y1="0" x2="138" y2="0" stroke="rgb(102,102,102)" stroke-width="1" stroke-linecap="square"/></g></g><g transform="translate(0,4)"><g><g><line shape-rendering="crispEdges" pointer-events="none" x1="48" y1="103" x2="54" y2="103" stroke="rgb(102,102,102)" stroke-width="1"/></g><g><text pointer-events="all" x="-3" dy=".35em" transform="translate(48,103)" fill="rgb(102,102,102)" text-anchor="end" style="font: 9px sans-serif;">0</text></g><g><line shape-rendering="crispEdges" pointer-events="none" x1="48" y1="68.66666666666667" x2="54" y2="68.66666666666667" stroke="rgb(102,102,102)" stroke-width="1"/></g><g><text pointer-events="all" x="-3" dy=".35em" transform="translate(48,68.66666666666667)" fill="rgb(102,102,102)" text-anchor="end" style="font: 9px sans-serif;">50,000</text></g><g><line shape-rendering="crispEdges" pointer-events="none" x1="48" y1="34.33333333333334" x2="54" y2="34.33333333333334" stroke="rgb(102,102,102)" stroke-width="1"/></g><g><text pointer-events="all" x="-3" dy=".35em" transform="translate(48,34.33333333333334)" fill="rgb(102,102,102)" text-anchor="end" style="font: 9px sans-serif;">100,000</text></g><g><line shape-rendering="crispEdges" pointer-events="none" x1="48" y1="0" x2="54" y2="0" stroke="rgb(102,102,102)" stroke-width="1"/></g><g><text pointer-events="all" x="-3" dy=".35em" transform="translate(48,0)" fill="rgb(102,102,102)" text-anchor="end" style="font: 9px sans-serif;">150,000</text></g></g><g><line shape-rendering="crispEdges" pointer-events="none" x1="54" y1="0" x2="54" y2="103" stroke="rgb(102,102,102)" stroke-width="1" stroke-linecap="square"/></g></g></g></g></g><g transform="translate(216,30)"><g transform="translate(404,0)"><g transform="translate(50.5,0)"><g transform="translate(4,4)"><text pointer-events="none" dy=".35em" transform="translate(41.5,8.5)" fill="rgb(0,0,0)" text-anchor="middle" style="font: 14px sans-serif;">Ciutat Vella</text></g></g></g><g transform="translate(404,0)"><g transform="translate(0,25)"><g transform="translate(0,4)"/><g transform="translate(0,4)"><g transform="translate(54,0)"><g><g><rect shape-rendering="crispEdges" cursor="pointer" x="6.899999999999999" y="58.07208666666667" width="55.89" height="44.92791333333333" fill="rgb(31,119,180)"/></g><g><rect shape-rendering="crispEdges" cursor="pointer" x="75.21000000000001" y="58.16959333333333" width="55.89" height="44.83040666666667" fill="rgb(174,199,232)"/></g></g></g></g><g transform="translate(0,4)"><g transform="translate(54,103)"><g transform="translate(69,0)"/></g><g transform="translate(54,103)"><line shape-rendering="crispEdges" pointer-events="none" x1="0" y1="0" x2="138" y2="0" stroke="rgb(102,102,102)" stroke-width="1" stroke-linecap="square"/></g></g><g transform="translate(0,4)"><g><g><line shape-rendering="crispEdges" pointer-events="none" x1="48" y1="103" x2="54" y2="103" stroke="rgb(102,102,102)" stroke-width="1"/></g><g><text pointer-events="all" x="-3" dy=".35em" transform="translate(48,103)" fill="rgb(102,102,102)" text-anchor="end" style="font: 9px sans-serif;">0</text></g><g><line shape-rendering="crispEdges" pointer-events="none" x1="48" y1="68.66666666666667" x2="54" y2="68.66666666666667" stroke="rgb(102,102,102)" stroke-width="1"/></g><g><text pointer-events="all" x="-3" dy=".35em" transform="translate(48,68.66666666666667)" fill="rgb(102,102,102)" text-anchor="end" style="font: 9px sans-serif;">50,000</text></g><g><line shape-rendering="crispEdges" pointer-events="none" x1="48" y1="34.33333333333334" x2="54" y2="34.33333333333334" stroke="rgb(102,102,102)" stroke-width="1"/></g><g><text pointer-events="all" x="-3" dy=".35em" transform="translate(48,34.33333333333334)" fill="rgb(102,102,102)" text-anchor="end" style="font: 9px sans-serif;">100,000</text></g><g><line shape-rendering="crispEdges" pointer-events="none" x1="48" y1="0" x2="54" y2="0" stroke="rgb(102,102,102)" stroke-width="1"/></g><g><text pointer-events="all" x="-3" dy=".35em" transform="translate(48,0)" fill="rgb(102,102,102)" text-anchor="end" style="font: 9px sans-serif;">150,000</text></g></g><g><line shape-rendering="crispEdges" pointer-events="none" x1="54" y1="0" x2="54" y2="103" stroke="rgb(102,102,102)" stroke-width="1" stroke-linecap="square"/></g></g></g></g></g><g transform="translate(216,30)"><g transform="translate(604,0)"><g transform="translate(72,0)"><g transform="translate(4,4)"><text pointer-events="none" dy=".35em" transform="translate(20,8.5)" fill="rgb(0,0,0)" text-anchor="middle" style="font: 14px sans-serif;">#null</text></g></g></g><g transform="translate(604,0)"><g transform="translate(0,25)"><g transform="translate(0,4)"/><g transform="translate(0,4)"><g transform="translate(54,0)"><g><g><rect shape-rendering="crispEdges" cursor="pointer" x="6.899999999999999" y="61.40928666666667" width="55.89" height="41.59071333333333" fill="rgb(31,119,180)"/></g><g><rect shape-rendering="crispEdges" cursor="pointer" x="75.21000000000001" y="61.430573333333335" width="55.89" height="41.569426666666665" fill="rgb(174,199,232)"/></g></g></g></g><g transform="translate(0,4)"><g transform="translate(54,103)"><g transform="translate(69,0)"/></g><g transform="translate(54,103)"><line shape-rendering="crispEdges" pointer-events="none" x1="0" y1="0" x2="138" y2="0" stroke="rgb(102,102,102)" stroke-width="1" stroke-linecap="square"/></g></g><g transform="translate(0,4)"><g><g><line shape-rendering="crispEdges" pointer-events="none" x1="48" y1="103" x2="54" y2="103" stroke="rgb(102,102,102)" stroke-width="1"/></g><g><text pointer-events="all" x="-3" dy=".35em" transform="translate(48,103)" fill="rgb(102,102,102)" text-anchor="end" style="font: 9px sans-serif;">0</text></g><g><line shape-rendering="crispEdges" pointer-events="none" x1="48" y1="68.66666666666667" x2="54" y2="68.66666666666667" stroke="rgb(102,102,102)" stroke-width="1"/></g><g><text pointer-events="all" x="-3" dy=".35em" transform="translate(48,68.66666666666667)" fill="rgb(102,102,102)" text-anchor="end" style="font: 9px sans-serif;">50,000</text></g><g><line shape-rendering="crispEdges" pointer-events="none" x1="48" y1="34.33333333333334" x2="54" y2="34.33333333333334" stroke="rgb(102,102,102)" stroke-width="1"/></g><g><text pointer-events="all" x="-3" dy=".35em" transform="translate(48,34.33333333333334)" fill="rgb(102,102,102)" text-anchor="end" style="font: 9px sans-serif;">100,000</text></g><g><line shape-rendering="crispEdges" pointer-events="none" x1="48" y1="0" x2="54" y2="0" stroke="rgb(102,102,102)" stroke-width="1"/></g><g><text pointer-events="all" x="-3" dy=".35em" transform="translate(48,0)" fill="rgb(102,102,102)" text-anchor="end" style="font: 9px sans-serif;">150,000</text></g></g><g><line shape-rendering="crispEdges" pointer-events="none" x1="54" y1="0" x2="54" y2="103" stroke="rgb(102,102,102)" stroke-width="1" stroke-linecap="square"/></g></g></g></g></g><g transform="translate(216,30)"><g transform="translate(804,0)"><g transform="translate(37,0)"><g transform="translate(4,4)"><text pointer-events="none" dy=".35em" transform="translate(57,8.5)" fill="rgb(0,0,0)" text-anchor="middle" style="font: 14px sans-serif;">Sants - Montjuïc</text></g></g></g><g transform="translate(804,0)"><g transform="translate(0,25)"><g transform="translate(0,4)"/><g transform="translate(0,4)"><g transform="translate(54,0)"><g><g><rect shape-rendering="crispEdges" cursor="pointer" x="7.100000000000001" y="79.51599999999999" width="57.51" height="23.484" fill="rgb(31,119,180)"/></g><g><rect shape-rendering="crispEdges" cursor="pointer" x="77.38999999999999" y="79.55239333333333" width="57.51" height="23.447606666666665" fill="rgb(174,199,232)"/></g></g></g></g><g transform="translate(0,4)"><g transform="translate(54,103)"><g transform="translate(71,0)"/></g><g transform="translate(54,103)"><line shape-rendering="crispEdges" pointer-events="none" x1="0" y1="0" x2="142" y2="0" stroke="rgb(102,102,102)" stroke-width="1" stroke-linecap="square"/></g></g><g transform="translate(0,4)"><g><g><line shape-rendering="crispEdges" pointer-events="none" x1="48" y1="103" x2="54" y2="103" stroke="rgb(102,102,102)" stroke-width="1"/></g><g><text pointer-events="all" x="-3" dy=".35em" transform="translate(48,103)" fill="rgb(102,102,102)" text-anchor="end" style="font: 9px sans-serif;">0</text></g><g><line shape-rendering="crispEdges" pointer-events="none" x1="48" y1="68.66666666666667" x2="54" y2="68.66666666666667" stroke="rgb(102,102,102)" stroke-width="1"/></g><g><text pointer-events="all" x="-3" dy=".35em" transform="translate(48,68.66666666666667)" fill="rgb(102,102,102)" text-anchor="end" style="font: 9px sans-serif;">50,000</text></g><g><line shape-rendering="crispEdges" pointer-events="none" x1="48" y1="34.33333333333334" x2="54" y2="34.33333333333334" stroke="rgb(102,102,102)" stroke-width="1"/></g><g><text pointer-events="all" x="-3" dy=".35em" transform="translate(48,34.33333333333334)" fill="rgb(102,102,102)" text-anchor="end" style="font: 9px sans-serif;">100,000</text></g><g><line shape-rendering="crispEdges" pointer-events="none" x1="48" y1="0" x2="54" y2="0" stroke="rgb(102,102,102)" stroke-width="1"/></g><g><text pointer-events="all" x="-3" dy=".35em" transform="translate(48,0)" fill="rgb(102,102,102)" text-anchor="end" style="font: 9px sans-serif;">150,000</text></g></g><g><line shape-rendering="crispEdges" pointer-events="none" x1="54" y1="0" x2="54" y2="103" stroke="rgb(102,102,102)" stroke-width="1" stroke-linecap="square"/></g></g></g></g></g><g transform="translate(216,30)"><g transform="translate(0,153)"><g transform="translate(60.5,0)"><g transform="translate(4,4)"><text pointer-events="none" dy=".35em" transform="translate(33.5,8.5)" fill="rgb(0,0,0)" text-anchor="middle" style="font: 14px sans-serif;">Les Corts</text></g></g></g><g transform="translate(0,153)"><g transform="translate(0,25)"><g transform="translate(0,4)"/><g transform="translate(0,4)"><g transform="translate(54,0)"><g><g><rect shape-rendering="crispEdges" cursor="pointer" x="7.100000000000001" y="79.982" width="57.51" height="20.018" fill="rgb(31,119,180)"/></g><g><rect shape-rendering="crispEdges" cursor="pointer" x="77.38999999999999" y="80.03466666666667" width="57.51" height="19.965333333333334" fill="rgb(174,199,232)"/></g></g></g></g><g transform="translate(0,4)"><g transform="translate(54,100)"><g transform="translate(71,0)"/></g><g transform="translate(54,100)"><line shape-rendering="crispEdges" pointer-events="none" x1="0" y1="0" x2="142" y2="0" stroke="rgb(102,102,102)" stroke-width="1" stroke-linecap="square"/></g></g><g transform="translate(0,4)"><g><g><line shape-rendering="crispEdges" pointer-events="none" x1="48" y1="100" x2="54" y2="100" stroke="rgb(102,102,102)" stroke-width="1"/></g><g><text pointer-events="all" x="-3" dy=".35em" transform="translate(48,100)" fill="rgb(102,102,102)" text-anchor="end" style="font: 9px sans-serif;">0</text></g><g><line shape-rendering="crispEdges" pointer-events="none" x1="48" y1="66.66666666666667" x2="54" y2="66.66666666666667" stroke="rgb(102,102,102)" stroke-width="1"/></g><g><text pointer-events="all" x="-3" dy=".35em" transform="translate(48,66.66666666666667)" fill="rgb(102,102,102)" text-anchor="end" style="font: 9px sans-serif;">50,000</text></g><g><line shape-rendering="crispEdges" pointer-events="none" x1="48" y1="33.33333333333334" x2="54" y2="33.33333333333334" stroke="rgb(102,102,102)" stroke-width="1"/></g><g><text pointer-events="all" x="-3" dy=".35em" transform="translate(48,33.33333333333334)" fill="rgb(102,102,102)" text-anchor="end" style="font: 9px sans-serif;">100,000</text></g><g><line shape-rendering="crispEdges" pointer-events="none" x1="48" y1="0" x2="54" y2="0" stroke="rgb(102,102,102)" stroke-width="1"/></g><g><text pointer-events="all" x="-3" dy=".35em" transform="translate(48,0)" fill="rgb(102,102,102)" text-anchor="end" style="font: 9px sans-serif;">150,000</text></g></g><g><line shape-rendering="crispEdges" pointer-events="none" x1="54" y1="0" x2="54" y2="100" stroke="rgb(102,102,102)" stroke-width="1" stroke-linecap="square"/></g></g></g></g></g><g transform="translate(216,30)"><g transform="translate(204,153)"><g transform="translate(22,0)"><g transform="translate(4,4)"><text pointer-events="none" dy=".35em" transform="translate(70,8.5)" fill="rgb(0,0,0)" text-anchor="middle" style="font: 14px sans-serif;">Sarrià-Sant Gervasi</text></g></g></g><g transform="translate(204,153)"><g transform="translate(0,25)"><g transform="translate(0,4)"/><g transform="translate(0,4)"><g transform="translate(54,0)"><g><g><rect shape-rendering="crispEdges" cursor="pointer" x="6.899999999999999" y="81.45466666666667" width="55.89" height="18.545333333333332" fill="rgb(31,119,180)"/></g><g><rect shape-rendering="crispEdges" cursor="pointer" x="75.21000000000001" y="81.46933333333334" width="55.89" height="18.53066666666667" fill="rgb(174,199,232)"/></g></g></g></g><g transform="translate(0,4)"><g transform="translate(54,100)"><g transform="translate(69,0)"/></g><g transform="translate(54,100)"><line shape-rendering="crispEdges" pointer-events="none" x1="0" y1="0" x2="138" y2="0" stroke="rgb(102,102,102)" stroke-width="1" stroke-linecap="square"/></g></g><g transform="translate(0,4)"><g><g><line shape-rendering="crispEdges" pointer-events="none" x1="48" y1="100" x2="54" y2="100" stroke="rgb(102,102,102)" stroke-width="1"/></g><g><text pointer-events="all" x="-3" dy=".35em" transform="translate(48,100)" fill="rgb(102,102,102)" text-anchor="end" style="font: 9px sans-serif;">0</text></g><g><line shape-rendering="crispEdges" pointer-events="none" x1="48" y1="66.66666666666667" x2="54" y2="66.66666666666667" stroke="rgb(102,102,102)" stroke-width="1"/></g><g><text pointer-events="all" x="-3" dy=".35em" transform="translate(48,66.66666666666667)" fill="rgb(102,102,102)" text-anchor="end" style="font: 9px sans-serif;">50,000</text></g><g><line shape-rendering="crispEdges" pointer-events="none" x1="48" y1="33.33333333333334" x2="54" y2="33.33333333333334" stroke="rgb(102,102,102)" stroke-width="1"/></g><g><text pointer-events="all" x="-3" dy=".35em" transform="translate(48,33.33333333333334)" fill="rgb(102,102,102)" text-anchor="end" style="font: 9px sans-serif;">100,000</text></g><g><line shape-rendering="crispEdges" pointer-events="none" x1="48" y1="0" x2="54" y2="0" stroke="rgb(102,102,102)" stroke-width="1"/></g><g><text pointer-events="all" x="-3" dy=".35em" transform="translate(48,0)" fill="rgb(102,102,102)" text-anchor="end" style="font: 9px sans-serif;">150,000</text></g></g><g><line shape-rendering="crispEdges" pointer-events="none" x1="54" y1="0" x2="54" y2="100" stroke="rgb(102,102,102)" stroke-width="1" stroke-linecap="square"/></g></g></g></g></g><g transform="translate(216,30)"><g transform="translate(404,153)"><g transform="translate(47,0)"><g transform="translate(4,4)"><text pointer-events="none" dy=".35em" transform="translate(45,8.5)" fill="rgb(0,0,0)" text-anchor="middle" style="font: 14px sans-serif;">Sant Andreu</text></g></g></g><g transform="translate(404,153)"><g transform="translate(0,25)"><g transform="translate(0,4)"/><g transform="translate(0,4)"><g transform="translate(54,0)"><g><g><rect shape-rendering="crispEdges" cursor="pointer" x="6.899999999999999" y="84.344" width="55.89" height="15.656" fill="rgb(31,119,180)"/></g><g><rect shape-rendering="crispEdges" cursor="pointer" x="75.21000000000001" y="84.31066666666666" width="55.89" height="15.689333333333334" fill="rgb(174,199,232)"/></g></g></g></g><g transform="translate(0,4)"><g transform="translate(54,100)"><g transform="translate(69,0)"/></g><g transform="translate(54,100)"><line shape-rendering="crispEdges" pointer-events="none" x1="0" y1="0" x2="138" y2="0" stroke="rgb(102,102,102)" stroke-width="1" stroke-linecap="square"/></g></g><g transform="translate(0,4)"><g><g><line shape-rendering="crispEdges" pointer-events="none" x1="48" y1="100" x2="54" y2="100" stroke="rgb(102,102,102)" stroke-width="1"/></g><g><text pointer-events="all" x="-3" dy=".35em" transform="translate(48,100)" fill="rgb(102,102,102)" text-anchor="end" style="font: 9px sans-serif;">0</text></g><g><line shape-rendering="crispEdges" pointer-events="none" x1="48" y1="66.66666666666667" x2="54" y2="66.66666666666667" stroke="rgb(102,102,102)" stroke-width="1"/></g><g><text pointer-events="all" x="-3" dy=".35em" transform="translate(48,66.66666666666667)" fill="rgb(102,102,102)" text-anchor="end" style="font: 9px sans-serif;">50,000</text></g><g><line shape-rendering="crispEdges" pointer-events="none" x1="48" y1="33.33333333333334" x2="54" y2="33.33333333333334" stroke="rgb(102,102,102)" stroke-width="1"/></g><g><text pointer-events="all" x="-3" dy=".35em" transform="translate(48,33.33333333333334)" fill="rgb(102,102,102)" text-anchor="end" style="font: 9px sans-serif;">100,000</text></g><g><line shape-rendering="crispEdges" pointer-events="none" x1="48" y1="0" x2="54" y2="0" stroke="rgb(102,102,102)" stroke-width="1"/></g><g><text pointer-events="all" x="-3" dy=".35em" transform="translate(48,0)" fill="rgb(102,102,102)" text-anchor="end" style="font: 9px sans-serif;">150,000</text></g></g><g><line shape-rendering="crispEdges" pointer-events="none" x1="54" y1="0" x2="54" y2="100" stroke="rgb(102,102,102)" stroke-width="1" stroke-linecap="square"/></g></g></g></g></g><g transform="translate(216,30)"><g transform="translate(604,153)"><g transform="translate(54,0)"><g transform="translate(4,4)"><text pointer-events="none" dy=".35em" transform="translate(38,8.5)" fill="rgb(0,0,0)" text-anchor="middle" style="font: 14px sans-serif;">Nou Barris</text></g></g></g><g transform="translate(604,153)"><g transform="translate(0,25)"><g transform="translate(0,4)"/><g transform="translate(0,4)"><g transform="translate(54,0)"><g><g><rect shape-rendering="crispEdges" cursor="pointer" x="6.899999999999999" y="91.54333333333334" width="55.89" height="8.456666666666667" fill="rgb(31,119,180)"/></g><g><rect shape-rendering="crispEdges" cursor="pointer" x="75.21000000000001" y="91.51" width="55.89" height="8.49" fill="rgb(174,199,232)"/></g></g></g></g><g transform="translate(0,4)"><g transform="translate(54,100)"><g transform="translate(69,0)"/></g><g transform="translate(54,100)"><line shape-rendering="crispEdges" pointer-events="none" x1="0" y1="0" x2="138" y2="0" stroke="rgb(102,102,102)" stroke-width="1" stroke-linecap="square"/></g></g><g transform="translate(0,4)"><g><g><line shape-rendering="crispEdges" pointer-events="none" x1="48" y1="100" x2="54" y2="100" stroke="rgb(102,102,102)" stroke-width="1"/></g><g><text pointer-events="all" x="-3" dy=".35em" transform="translate(48,100)" fill="rgb(102,102,102)" text-anchor="end" style="font: 9px sans-serif;">0</text></g><g><line shape-rendering="crispEdges" pointer-events="none" x1="48" y1="66.66666666666667" x2="54" y2="66.66666666666667" stroke="rgb(102,102,102)" stroke-width="1"/></g><g><text pointer-events="all" x="-3" dy=".35em" transform="translate(48,66.66666666666667)" fill="rgb(102,102,102)" text-anchor="end" style="font: 9px sans-serif;">50,000</text></g><g><line shape-rendering="crispEdges" pointer-events="none" x1="48" y1="33.33333333333334" x2="54" y2="33.33333333333334" stroke="rgb(102,102,102)" stroke-width="1"/></g><g><text pointer-events="all" x="-3" dy=".35em" transform="translate(48,33.33333333333334)" fill="rgb(102,102,102)" text-anchor="end" style="font: 9px sans-serif;">100,000</text></g><g><line shape-rendering="crispEdges" pointer-events="none" x1="48" y1="0" x2="54" y2="0" stroke="rgb(102,102,102)" stroke-width="1"/></g><g><text pointer-events="all" x="-3" dy=".35em" transform="translate(48,0)" fill="rgb(102,102,102)" text-anchor="end" style="font: 9px sans-serif;">150,000</text></g></g><g><line shape-rendering="crispEdges" pointer-events="none" x1="54" y1="0" x2="54" y2="100" stroke="rgb(102,102,102)" stroke-width="1" stroke-linecap="square"/></g></g></g></g></g><g transform="translate(216,30)"><g transform="translate(804,153)"><g transform="translate(41,0)"><g transform="translate(4,4)"><text pointer-events="none" dy=".35em" transform="translate(53,8.5)" fill="rgb(0,0,0)" text-anchor="middle" style="font: 14px sans-serif;">Sants-Montjuïc</text></g></g></g><g transform="translate(804,153)"><g transform="translate(0,25)"><g transform="translate(0,4)"/><g transform="translate(0,4)"><g transform="translate(54,0)"><g><g><rect shape-rendering="crispEdges" cursor="pointer" x="7.100000000000001" y="91.86133333333333" width="57.51" height="8.138666666666666" fill="rgb(31,119,180)"/></g><g><rect shape-rendering="crispEdges" cursor="pointer" x="77.38999999999999" y="91.84266666666667" width="57.51" height="8.157333333333334" fill="rgb(174,199,232)"/></g></g></g></g><g transform="translate(0,4)"><g transform="translate(54,100)"><g transform="translate(71,0)"/></g><g transform="translate(54,100)"><line shape-rendering="crispEdges" pointer-events="none" x1="0" y1="0" x2="142" y2="0" stroke="rgb(102,102,102)" stroke-width="1" stroke-linecap="square"/></g></g><g transform="translate(0,4)"><g><g><line shape-rendering="crispEdges" pointer-events="none" x1="48" y1="100" x2="54" y2="100" stroke="rgb(102,102,102)" stroke-width="1"/></g><g><text pointer-events="all" x="-3" dy=".35em" transform="translate(48,100)" fill="rgb(102,102,102)" text-anchor="end" style="font: 9px sans-serif;">0</text></g><g><line shape-rendering="crispEdges" pointer-events="none" x1="48" y1="66.66666666666667" x2="54" y2="66.66666666666667" stroke="rgb(102,102,102)" stroke-width="1"/></g><g><text pointer-events="all" x="-3" dy=".35em" transform="translate(48,66.66666666666667)" fill="rgb(102,102,102)" text-anchor="end" style="font: 9px sans-serif;">50,000</text></g><g><line shape-rendering="crispEdges" pointer-events="none" x1="48" y1="33.33333333333334" x2="54" y2="33.33333333333334" stroke="rgb(102,102,102)" stroke-width="1"/></g><g><text pointer-events="all" x="-3" dy=".35em" transform="translate(48,33.33333333333334)" fill="rgb(102,102,102)" text-anchor="end" style="font: 9px sans-serif;">100,000</text></g><g><line shape-rendering="crispEdges" pointer-events="none" x1="48" y1="0" x2="54" y2="0" stroke="rgb(102,102,102)" stroke-width="1"/></g><g><text pointer-events="all" x="-3" dy=".35em" transform="translate(48,0)" fill="rgb(102,102,102)" text-anchor="end" style="font: 9px sans-serif;">150,000</text></g></g><g><line shape-rendering="crispEdges" pointer-events="none" x1="54" y1="0" x2="54" y2="100" stroke="rgb(102,102,102)" stroke-width="1" stroke-linecap="square"/></g></g></g></g></g><g transform="translate(216,30)"><g transform="translate(0,303)"><g transform="translate(6.5,0)"><g transform="translate(4,4)"><text pointer-events="none" dy=".35em" transform="translate(87.5,8.5)" fill="rgb(0,0,0)" text-anchor="middle" style="font: 14px sans-serif;">Districte de Sant Andreu</text></g></g></g><g transform="translate(0,303)"><g transform="translate(0,25)"><g transform="translate(0,4)"/><g transform="translate(0,4)"><g transform="translate(54,0)"><g><g><rect shape-rendering="crispEdges" cursor="pointer" x="7.100000000000001" y="92.25466666666667" width="57.51" height="7.745333333333333" fill="rgb(31,119,180)"/></g><g><rect shape-rendering="crispEdges" cursor="pointer" x="77.38999999999999" y="92.28466666666667" width="57.51" height="7.715333333333334" fill="rgb(174,199,232)"/></g></g></g></g><g transform="translate(0,4)"><g transform="translate(54,100)"><g transform="translate(71,0)"/></g><g transform="translate(54,100)"><line shape-rendering="crispEdges" pointer-events="none" x1="0" y1="0" x2="142" y2="0" stroke="rgb(102,102,102)" stroke-width="1" stroke-linecap="square"/></g></g><g transform="translate(0,4)"><g><g><line shape-rendering="crispEdges" pointer-events="none" x1="48" y1="100" x2="54" y2="100" stroke="rgb(102,102,102)" stroke-width="1"/></g><g><text pointer-events="all" x="-3" dy=".35em" transform="translate(48,100)" fill="rgb(102,102,102)" text-anchor="end" style="font: 9px sans-serif;">0</text></g><g><line shape-rendering="crispEdges" pointer-events="none" x1="48" y1="66.66666666666667" x2="54" y2="66.66666666666667" stroke="rgb(102,102,102)" stroke-width="1"/></g><g><text pointer-events="all" x="-3" dy=".35em" transform="translate(48,66.66666666666667)" fill="rgb(102,102,102)" text-anchor="end" style="font: 9px sans-serif;">50,000</text></g><g><line shape-rendering="crispEdges" pointer-events="none" x1="48" y1="33.33333333333334" x2="54" y2="33.33333333333334" stroke="rgb(102,102,102)" stroke-width="1"/></g><g><text pointer-events="all" x="-3" dy=".35em" transform="translate(48,33.33333333333334)" fill="rgb(102,102,102)" text-anchor="end" style="font: 9px sans-serif;">100,000</text></g><g><line shape-rendering="crispEdges" pointer-events="none" x1="48" y1="0" x2="54" y2="0" stroke="rgb(102,102,102)" stroke-width="1"/></g><g><text pointer-events="all" x="-3" dy=".35em" transform="translate(48,0)" fill="rgb(102,102,102)" text-anchor="end" style="font: 9px sans-serif;">150,000</text></g></g><g><line shape-rendering="crispEdges" pointer-events="none" x1="54" y1="0" x2="54" y2="100" stroke="rgb(102,102,102)" stroke-width="1" stroke-linecap="square"/></g></g></g></g></g><g transform="translate(216,30)"><g transform="translate(204,303)"><g transform="translate(12,0)"><g transform="translate(4,4)"><text pointer-events="none" dy=".35em" transform="translate(80,8.5)" fill="rgb(0,0,0)" text-anchor="middle" style="font: 14px sans-serif;">Districte de Sant Martí</text></g></g></g><g transform="translate(204,303)"><g transform="translate(0,25)"><g transform="translate(0,4)"/><g transform="translate(0,4)"><g transform="translate(54,0)"><g><g><rect shape-rendering="crispEdges" cursor="pointer" x="6.899999999999999" y="92.73" width="55.89" height="7.2700000000000005" fill="rgb(31,119,180)"/></g><g><rect shape-rendering="crispEdges" cursor="pointer" x="75.21000000000001" y="92.722" width="55.89" height="7.278" fill="rgb(174,199,232)"/></g></g></g></g><g transform="translate(0,4)"><g transform="translate(54,100)"><g transform="translate(69,0)"/></g><g transform="translate(54,100)"><line shape-rendering="crispEdges" pointer-events="none" x1="0" y1="0" x2="138" y2="0" stroke="rgb(102,102,102)" stroke-width="1" stroke-linecap="square"/></g></g><g transform="translate(0,4)"><g><g><line shape-rendering="crispEdges" pointer-events="none" x1="48" y1="100" x2="54" y2="100" stroke="rgb(102,102,102)" stroke-width="1"/></g><g><text pointer-events="all" x="-3" dy=".35em" transform="translate(48,100)" fill="rgb(102,102,102)" text-anchor="end" style="font: 9px sans-serif;">0</text></g><g><line shape-rendering="crispEdges" pointer-events="none" x1="48" y1="66.66666666666667" x2="54" y2="66.66666666666667" stroke="rgb(102,102,102)" stroke-width="1"/></g><g><text pointer-events="all" x="-3" dy=".35em" transform="translate(48,66.66666666666667)" fill="rgb(102,102,102)" text-anchor="end" style="font: 9px sans-serif;">50,000</text></g><g><line shape-rendering="crispEdges" pointer-events="none" x1="48" y1="33.33333333333334" x2="54" y2="33.33333333333334" stroke="rgb(102,102,102)" stroke-width="1"/></g><g><text pointer-events="all" x="-3" dy=".35em" transform="translate(48,33.33333333333334)" fill="rgb(102,102,102)" text-anchor="end" style="font: 9px sans-serif;">100,000</text></g><g><line shape-rendering="crispEdges" pointer-events="none" x1="48" y1="0" x2="54" y2="0" stroke="rgb(102,102,102)" stroke-width="1"/></g><g><text pointer-events="all" x="-3" dy=".35em" transform="translate(48,0)" fill="rgb(102,102,102)" text-anchor="end" style="font: 9px sans-serif;">150,000</text></g></g><g><line shape-rendering="crispEdges" pointer-events="none" x1="54" y1="0" x2="54" y2="100" stroke="rgb(102,102,102)" stroke-width="1" stroke-linecap="square"/></g></g></g></g></g><g transform="translate(216,30)"><g transform="translate(404,303)"><g transform="translate(18,0)"><g transform="translate(4,4)"><text pointer-events="none" dy=".35em" transform="translate(74,8.5)" fill="rgb(0,0,0)" text-anchor="middle" style="font: 14px sans-serif;">Sarrià - Sant Gervasi</text></g></g></g><g transform="translate(404,303)"><g transform="translate(0,25)"><g transform="translate(0,4)"/><g transform="translate(0,4)"><g transform="translate(54,0)"><g><g><rect shape-rendering="crispEdges" cursor="pointer" x="6.899999999999999" y="93.96266666666666" width="55.89" height="6.037333333333334" fill="rgb(31,119,180)"/></g><g><rect shape-rendering="crispEdges" cursor="pointer" x="75.21000000000001" y="93.962" width="55.89" height="6.038" fill="rgb(174,199,232)"/></g></g></g></g><g transform="translate(0,4)"><g transform="translate(54,100)"><g transform="translate(69,0)"/></g><g transform="translate(54,100)"><line shape-rendering="crispEdges" pointer-events="none" x1="0" y1="0" x2="138" y2="0" stroke="rgb(102,102,102)" stroke-width="1" stroke-linecap="square"/></g></g><g transform="translate(0,4)"><g><g><line shape-rendering="crispEdges" pointer-events="none" x1="48" y1="100" x2="54" y2="100" stroke="rgb(102,102,102)" stroke-width="1"/></g><g><text pointer-events="all" x="-3" dy=".35em" transform="translate(48,100)" fill="rgb(102,102,102)" text-anchor="end" style="font: 9px sans-serif;">0</text></g><g><line shape-rendering="crispEdges" pointer-events="none" x1="48" y1="66.66666666666667" x2="54" y2="66.66666666666667" stroke="rgb(102,102,102)" stroke-width="1"/></g><g><text pointer-events="all" x="-3" dy=".35em" transform="translate(48,66.66666666666667)" fill="rgb(102,102,102)" text-anchor="end" style="font: 9px sans-serif;">50,000</text></g><g><line shape-rendering="crispEdges" pointer-events="none" x1="48" y1="33.33333333333334" x2="54" y2="33.33333333333334" stroke="rgb(102,102,102)" stroke-width="1"/></g><g><text pointer-events="all" x="-3" dy=".35em" transform="translate(48,33.33333333333334)" fill="rgb(102,102,102)" text-anchor="end" style="font: 9px sans-serif;">100,000</text></g><g><line shape-rendering="crispEdges" pointer-events="none" x1="48" y1="0" x2="54" y2="0" stroke="rgb(102,102,102)" stroke-width="1"/></g><g><text pointer-events="all" x="-3" dy=".35em" transform="translate(48,0)" fill="rgb(102,102,102)" text-anchor="end" style="font: 9px sans-serif;">150,000</text></g></g><g><line shape-rendering="crispEdges" pointer-events="none" x1="54" y1="0" x2="54" y2="100" stroke="rgb(102,102,102)" stroke-width="1" stroke-linecap="square"/></g></g></g></g></g><g transform="translate(216,30)"><g transform="translate(604,303)"><g transform="translate(35,0)"><g transform="translate(4,4)"><text pointer-events="none" dy=".35em" transform="translate(57,8.5)" fill="rgb(0,0,0)" text-anchor="middle" style="font: 14px sans-serif;">Horta-Guinardó</text></g></g></g><g transform="translate(604,303)"><g transform="translate(0,25)"><g transform="translate(0,4)"/><g transform="translate(0,4)"><g transform="translate(54,0)"><g><g><rect shape-rendering="crispEdges" cursor="pointer" x="6.899999999999999" y="96.64733333333334" width="55.89" height="3.352666666666667" fill="rgb(31,119,180)"/></g><g><rect shape-rendering="crispEdges" cursor="pointer" x="75.21000000000001" y="96.646" width="55.89" height="3.354" fill="rgb(174,199,232)"/></g></g></g></g><g transform="translate(0,4)"><g transform="translate(54,100)"><g transform="translate(69,0)"/></g><g transform="translate(54,100)"><line shape-rendering="crispEdges" pointer-events="none" x1="0" y1="0" x2="138" y2="0" stroke="rgb(102,102,102)" stroke-width="1" stroke-linecap="square"/></g></g><g transform="translate(0,4)"><g><g><line shape-rendering="crispEdges" pointer-events="none" x1="48" y1="100" x2="54" y2="100" stroke="rgb(102,102,102)" stroke-width="1"/></g><g><text pointer-events="all" x="-3" dy=".35em" transform="translate(48,100)" fill="rgb(102,102,102)" text-anchor="end" style="font: 9px sans-serif;">0</text></g><g><line shape-rendering="crispEdges" pointer-events="none" x1="48" y1="66.66666666666667" x2="54" y2="66.66666666666667" stroke="rgb(102,102,102)" stroke-width="1"/></g><g><text pointer-events="all" x="-3" dy=".35em" transform="translate(48,66.66666666666667)" fill="rgb(102,102,102)" text-anchor="end" style="font: 9px sans-serif;">50,000</text></g><g><line shape-rendering="crispEdges" pointer-events="none" x1="48" y1="33.33333333333334" x2="54" y2="33.33333333333334" stroke="rgb(102,102,102)" stroke-width="1"/></g><g><text pointer-events="all" x="-3" dy=".35em" transform="translate(48,33.33333333333334)" fill="rgb(102,102,102)" text-anchor="end" style="font: 9px sans-serif;">100,000</text></g><g><line shape-rendering="crispEdges" pointer-events="none" x1="48" y1="0" x2="54" y2="0" stroke="rgb(102,102,102)" stroke-width="1"/></g><g><text pointer-events="all" x="-3" dy=".35em" transform="translate(48,0)" fill="rgb(102,102,102)" text-anchor="end" style="font: 9px sans-serif;">150,000</text></g></g><g><line shape-rendering="crispEdges" pointer-events="none" x1="54" y1="0" x2="54" y2="100" stroke="rgb(102,102,102)" stroke-width="1" stroke-linecap="square"/></g></g></g></g></g><g transform="translate(216,30)"><g transform="translate(804,303)"><g transform="translate(69.5,0)"><g transform="translate(4,4)"><text pointer-events="none" dy=".35em" transform="translate(24.5,8.5)" fill="rgb(0,0,0)" text-anchor="middle" style="font: 14px sans-serif;">Gràcia</text></g></g></g><g transform="translate(804,303)"><g transform="translate(0,25)"><g transform="translate(0,4)"/><g transform="translate(0,4)"><g transform="translate(54,0)"><g><g><rect shape-rendering="crispEdges" cursor="pointer" x="7.100000000000001" y="97.602" width="57.51" height="2.398" fill="rgb(31,119,180)"/></g><g><rect shape-rendering="crispEdges" cursor="pointer" x="77.38999999999999" y="97.604" width="57.51" height="2.396" fill="rgb(174,199,232)"/></g></g></g></g><g transform="translate(0,4)"><g transform="translate(54,100)"><g transform="translate(71,0)"/></g><g transform="translate(54,100)"><line shape-rendering="crispEdges" pointer-events="none" x1="0" y1="0" x2="142" y2="0" stroke="rgb(102,102,102)" stroke-width="1" stroke-linecap="square"/></g></g><g transform="translate(0,4)"><g><g><line shape-rendering="crispEdges" pointer-events="none" x1="48" y1="100" x2="54" y2="100" stroke="rgb(102,102,102)" stroke-width="1"/></g><g><text pointer-events="all" x="-3" dy=".35em" transform="translate(48,100)" fill="rgb(102,102,102)" text-anchor="end" style="font: 9px sans-serif;">0</text></g><g><line shape-rendering="crispEdges" pointer-events="none" x1="48" y1="66.66666666666667" x2="54" y2="66.66666666666667" stroke="rgb(102,102,102)" stroke-width="1"/></g><g><text pointer-events="all" x="-3" dy=".35em" transform="translate(48,66.66666666666667)" fill="rgb(102,102,102)" text-anchor="end" style="font: 9px sans-serif;">50,000</text></g><g><line shape-rendering="crispEdges" pointer-events="none" x1="48" y1="33.33333333333334" x2="54" y2="33.33333333333334" stroke="rgb(102,102,102)" stroke-width="1"/></g><g><text pointer-events="all" x="-3" dy=".35em" transform="translate(48,33.33333333333334)" fill="rgb(102,102,102)" text-anchor="end" style="font: 9px sans-serif;">100,000</text></g><g><line shape-rendering="crispEdges" pointer-events="none" x1="48" y1="0" x2="54" y2="0" stroke="rgb(102,102,102)" stroke-width="1"/></g><g><text pointer-events="all" x="-3" dy=".35em" transform="translate(48,0)" fill="rgb(102,102,102)" text-anchor="end" style="font: 9px sans-serif;">150,000</text></g></g><g><line shape-rendering="crispEdges" pointer-events="none" x1="54" y1="0" x2="54" y2="100" stroke="rgb(102,102,102)" stroke-width="1" stroke-linecap="square"/></g></g></g></g></g><g transform="translate(216,30)"><g transform="translate(0,453)"><g transform="translate(43,0)"><g transform="translate(4,4)"><text pointer-events="none" dy=".35em" transform="translate(51,8.5)" fill="rgb(0,0,0)" text-anchor="middle" style="font: 14px sans-serif;">Vila de Gràcia</text></g></g></g><g transform="translate(0,453)"><g transform="translate(0,25)"><g transform="translate(0,4)"/><g transform="translate(0,4)"><g transform="translate(54,0)"><g><g><rect shape-rendering="crispEdges" cursor="pointer" x="7.100000000000001" y="101.146" width="57.51" height="1.8539999999999999" fill="rgb(31,119,180)"/></g><g><rect shape-rendering="crispEdges" cursor="pointer" x="77.38999999999999" y="101.14394" width="57.51" height="1.85606" fill="rgb(174,199,232)"/></g></g></g></g><g transform="translate(0,4)"><g transform="translate(54,103)"><g transform="translate(71,0)"/></g><g transform="translate(54,103)"><line shape-rendering="crispEdges" pointer-events="none" x1="0" y1="0" x2="142" y2="0" stroke="rgb(102,102,102)" stroke-width="1" stroke-linecap="square"/></g></g><g transform="translate(0,4)"><g><g><line shape-rendering="crispEdges" pointer-events="none" x1="48" y1="103" x2="54" y2="103" stroke="rgb(102,102,102)" stroke-width="1"/></g><g><text pointer-events="all" x="-3" dy=".35em" transform="translate(48,103)" fill="rgb(102,102,102)" text-anchor="end" style="font: 9px sans-serif;">0</text></g><g><line shape-rendering="crispEdges" pointer-events="none" x1="48" y1="68.66666666666667" x2="54" y2="68.66666666666667" stroke="rgb(102,102,102)" stroke-width="1"/></g><g><text pointer-events="all" x="-3" dy=".35em" transform="translate(48,68.66666666666667)" fill="rgb(102,102,102)" text-anchor="end" style="font: 9px sans-serif;">50,000</text></g><g><line shape-rendering="crispEdges" pointer-events="none" x1="48" y1="34.33333333333334" x2="54" y2="34.33333333333334" stroke="rgb(102,102,102)" stroke-width="1"/></g><g><text pointer-events="all" x="-3" dy=".35em" transform="translate(48,34.33333333333334)" fill="rgb(102,102,102)" text-anchor="end" style="font: 9px sans-serif;">100,000</text></g><g><line shape-rendering="crispEdges" pointer-events="none" x1="48" y1="0" x2="54" y2="0" stroke="rgb(102,102,102)" stroke-width="1"/></g><g><text pointer-events="all" x="-3" dy=".35em" transform="translate(48,0)" fill="rgb(102,102,102)" text-anchor="end" style="font: 9px sans-serif;">150,000</text></g></g><g><line shape-rendering="crispEdges" pointer-events="none" x1="54" y1="0" x2="54" y2="103" stroke="rgb(102,102,102)" stroke-width="1" stroke-linecap="square"/></g></g></g></g></g></g><g transform="translate(3,3)"><g transform="translate(1057.984375,0)"><g clip-path="url(#369)"><clipPath id="369"><rect x="5" y="5" width="364.015625" height="15"/></clipPath><g transform="translate(5,5)"><g><rect cursor="pointer" width="168" height="15" fill="rgb(200,200,200)" fill-opacity="0.0001"/><g><g><g><path cursor="pointer" fill="rgb(31,119,180)" stroke="rgb(31,119,180)" transform="translate(7.5,7.5)" d="M-3.872983346207417,-3.872983346207417L3.872983346207417,-3.872983346207417 3.872983346207417,3.872983346207417 -3.872983346207417,3.872983346207417Z"/></g></g><g><text pointer-events="none" x="2" dy=".35em" transform="translate(15,7.5)" fill="rgb(0,0,0)">[08:00 - 12:00)/TotalBikesLent</text></g></g><rect cursor="pointer" x="173" width="191.015625" height="15" fill="rgb(200,200,200)" fill-opacity="0.0001"/><g transform="translate(173,0)"><g><g><path cursor="pointer" fill="rgb(174,199,232)" stroke="rgb(174,199,232)" transform="translate(7.5,7.5)" d="M-3.872983346207417,-3.872983346207417L3.872983346207417,-3.872983346207417 3.872983346207417,3.872983346207417 -3.872983346207417,3.872983346207417Z"/></g></g><g><text pointer-events="none" x="2" dy=".35em" transform="translate(15,7.5)" fill="rgb(0,0,0)">[08:00 - 12:00)/TotalBikesReturned</text></g></g></g></g></g></g></g></g><g/><rect pointer-events="stroke" width="1438" height="636" stroke-opacity="0"/></svg>