<svg xmlns="http://www.w3.org/2000/svg" font-size="10px" font-family="sans-serif" fill="none" stroke="none" stroke-width="1.5" style="-webkit-touch-callout: none; -webkit-user-select: none; -khtml-user-select: none; -moz-user-select: none; -ms-user-select: none; user-select: none;" width="1178" height="306"><defs/><rect pointer-events="all" width="1178" height="306" fill="rgb(127,127,127)" fill-opacity="0.00001"/><g><g transform="translate(3,3)"><g transform="translate(967.984375,0)"><g clip-path="url(#lg)"><clipPath id="lg"><rect x="5" y="5" width="194.015625" height="15"/></clipPath><g transform="translate(5,5)"><g><rect cursor="pointer" width="83" height="15" fill="rgb(200,200,200)" fill-opacity="0.0001"/><g><g><g><path cursor="pointer" fill="rgb(31,119,180)" stroke="rgb(31,119,180)" transform="translate(7.5,7.5)" d="M-3.872983346207417,-3.872983346207417L3.872983346207417,-3.872983346207417 3.872983346207417,3.872983346207417 -3.872983346207417,3.872983346207417Z"/></g></g><g><text pointer-events="none" x="2" dy=".35em" transform="translate(15,7.5)" fill="rgb(0,0,0)">AverageLent</text></g></g><rect cursor="pointer" x="88" width="106.015625" height="15" fill="rgb(200,200,200)" fill-opacity="0.0001"/><g transform="translate(88,0)"><g><g><path cursor="pointer" fill="rgb(174,199,232)" stroke="rgb(174,199,232)" transform="translate(7.5,7.5)" d="M-3.872983346207417,-3.872983346207417L3.872983346207417,-3.872983346207417 3.872983346207417,3.872983346207417 -3.872983346207417,3.872983346207417Z"/></g></g><g><text pointer-events="none" x="2" dy=".35em" transform="translate(15,7.5)" fill="rgb(0,0,0)">AverageReturned</text></g></g></g></g></g></g></g><g transform="translate(3,3)"><g transform="translate(0,30)"><g transform="translate(0,4)"/><g transform="translate(0,4)"><g transform="translate(21,0)"><g><g><g pointer-events="none"><path pointer-events="none" cursor="pointer" d="M115.1,49.90893750000001C153.4595696182351,49.387171533886296,191.83787317962103,48.76067260786305,230.2,48.343350000000015C268.5621268203789,47.92602739213698,306.99258655132894,48.284360495460156,345.29999999999995,46.77776250000002C383.60741344867097,45.27116450453989,422.30693076939986,40.25152547384957,460.4,37.023187500000034C498.4930692306001,33.7948495261505,537.2410292807249,29.29847360309005,575.5,27.26861249999999C613.7589707192751,25.23875139690993,652.2508349500382,25.628988613920292,690.5999999999999,24.80973750000001C728.9491650499616,23.99048638607973,767.3564503659081,23.29234488747515,805.6999999999999,22.350862500000005C844.0435496340917,21.40938011252486,882.4628442489136,20.22109372592886,920.8,19.157437499999986C959.1371557510863,18.093781274071112,997.5628442489135,17.027668725928866,1035.8999999999999,15.964012499999995L1035.8999999999999,249C997.5333333333332,249,959.1666666666666,249,920.8,249C882.4333333333333,249,844.0666666666666,249,805.6999999999999,249C767.3333333333333,249,728.9666666666666,249,690.5999999999999,249C652.2333333333332,249,613.8666666666667,249,575.5,249C537.1333333333333,249,498.76666666666665,249,460.4,249C422.0333333333333,249,383.66666666666663,249,345.29999999999995,249C306.9333333333333,249,268.56666666666666,249,230.2,249C191.83333333333331,249,153.46666666666667,249,115.1,249Z" fill="rgb(31,119,180)"/></g><g><path cursor="pointer" d="M115.1,49.90893750000001C153.4595696182351,49.387171533886296,191.83787317962103,48.76067260786305,230.2,48.343350000000015L230.2,249C191.83333333333331,249,153.46666666666667,249,115.1,249Z" shape-rendering="crispEdges" fill="rgb(127,127,127)" fill-opacity="0.005"/><path cursor="pointer" d="M230.2,48.343350000000015C268.5621268203789,47.92602739213698,306.99258655132894,48.284360495460156,345.29999999999995,46.77776250000002L345.29999999999995,249C306.9333333333333,249,268.56666666666666,249,230.2,249Z" shape-rendering="crispEdges" fill="rgb(127,127,127)" fill-opacity="0.005"/><path cursor="pointer" d="M345.29999999999995,46.77776250000002C383.60741344867097,45.27116450453989,422.30693076939986,40.25152547384957,460.4,37.023187500000034L460.4,249C422.0333333333333,249,383.66666666666663,249,345.29999999999995,249Z" shape-rendering="crispEdges" fill="rgb(127,127,127)" fill-opacity="0.005"/><path cursor="pointer" d="M460.4,37.023187500000034C498.4930692306001,33.7948495261505,537.2410292807249,29.29847360309005,575.5,27.26861249999999L575.5,249C537.1333333333333,249,498.76666666666665,249,460.4,249Z" shape-rendering="crispEdges" fill="rgb(127,127,127)" fill-opacity="0.005"/><path cursor="pointer" d="M575.5,27.26861249999999C613.7589707192751,25.23875139690993,652.2508349500382,25.628988613920292,690.5999999999999,24.80973750000001L690.5999999999999,249C652.2333333333332,249,613.8666666666667,249,575.5,249Z" shape-rendering="crispEdges" fill="rgb(127,127,127)" fill-opacity="0.005"/><path cursor="pointer" d="M690.5999999999999,24.80973750000001C728.9491650499616,23.99048638607973,767.3564503659081,23.29234488747515,805.6999999999999,22.350862500000005L805.6999999999999,249C767.3333333333333,249,728.9666666666666,249,690.5999999999999,249Z" shape-rendering="crispEdges" fill="rgb(127,127,127)" fill-opacity="0.005"/><path cursor="pointer" d="M805.6999999999999,22.350862500000005C844.0435496340917,21.40938011252486,882.4628442489136,20.22109372592886,920.8,19.157437499999986L920.8,249C882.4333333333333,249,844.0666666666666,249,805.6999999999999,249Z" shape-rendering="crispEdges" fill="rgb(127,127,127)" fill-opacity="0.005"/><path cursor="pointer" d="M920.8,19.157437499999986C959.1371557510863,18.093781274071112,997.5628442489135,17.027668725928866,1035.8999999999999,15.964012499999995L1035.8999999999999,249C997.5333333333332,249,959.1666666666666,249,920.8,249Z" shape-rendering="crispEdges" fill="rgb(127,127,127)" fill-opacity="0.005"/></g></g></g><g><g><g pointer-events="none"><path pointer-events="none" cursor="pointer" d="M115.1,49.90893750000001C153.4595696182351,49.387171533886296,191.83787317962103,48.76067260786305,230.2,48.343350000000015C268.5621268203789,47.92602739213698,306.99258655132894,48.284360495460156,345.29999999999995,46.77776250000002C383.60741344867097,45.27116450453989,422.30693076939986,40.25152547384957,460.4,37.023187500000034C498.4930692306001,33.7948495261505,537.2410292807249,29.29847360309005,575.5,27.26861249999999C613.7589707192751,25.23875139690993,652.2508349500382,25.628988613920292,690.5999999999999,24.80973750000001C728.9491650499616,23.99048638607973,767.3564503659081,23.29234488747515,805.6999999999999,22.350862500000005C844.0435496340917,21.40938011252486,882.4628442489136,20.22109372592886,920.8,19.157437499999986C959.1371557510863,18.093781274071112,997.5628442489135,17.027668725928866,1035.8999999999999,15.964012499999995" stroke="rgb(25,96,145)"/></g><g><path cursor="pointer" d="M115.1,49.90893750000001C153.4595696182351,49.387171533886296,191.83787317962103,48.76067260786305,230.2,48.343350000000015" shape-rendering="crispEdges" fill="rgb(127,127,127)" fill-opacity="0.005" stroke="rgb(127,127,127)" stroke-opacity="0.005" stroke-width="10"/><path cursor="pointer" d="M230.2,48.343350000000015C268.5621268203789,47.92602739213698,306.99258655132894,48.284360495460156,345.29999999999995,46.77776250000002" shape-rendering="crispEdges" fill="rgb(127,127,127)" fill-opacity="0.005" stroke="rgb(127,127,127)" stroke-opacity="0.005" stroke-width="10"/><path cursor="pointer" d="M345.29999999999995,46.77776250000002C383.60741344867097,45.27116450453989,422.30693076939986,40.25152547384957,460.4,37.023187500000034" shape-rendering="crispEdges" fill="rgb(127,127,127)" fill-opacity="0.005" stroke="rgb(127,127,127)" stroke-opacity="0.005" stroke-width="10"/><path cursor="pointer" d="M460.4,37.023187500000034C498.4930692306001,33.7948495261505,537.2410292807249,29.29847360309005,575.5,27.26861249999999" shape-rendering="crispEdges" fill="rgb(127,127,127)" fill-opacity="0.005" stroke="rgb(127,127,127)" stroke-opacity="0.005" stroke-width="10"/><path cursor="pointer" d="M575.5,27.26861249999999C613.7589707192751,25.23875139690993,652.2508349500382,25.628988613920292,690.5999999999999,24.80973750000001" shape-rendering="crispEdges" fill="rgb(127,127,127)" fill-opacity="0.005" stroke="rgb(127,127,127)" stroke-opacity="0.005" stroke-width="10"/><path cursor="pointer" d="M690.5999999999999,24.80973750000001C728.9491650499616,23.99048638607973,767.3564503659081,23.29234488747515,805.6999999999999,22.350862500000005" shape-rendering="crispEdges" fill="rgb(127,127,127)" fill-opacity="0.005" stroke="rgb(127,127,127)" stroke-opacity="0.005" stroke-width="10"/><path cursor="pointer" d="M805.6999999999999,22.350862500000005C844.0435496340917,21.40938011252486,882.4628442489136,20.22109372592886,920.8,19.157437499999986" shape-rendering="crispEdges" fill="rgb(127,127,127)" fill-opacity="0.005" stroke="rgb(127,127,127)" stroke-opacity="0.005" stroke-width="10"/><path cursor="pointer" d="M920.8,19.157437499999986C959.1371557510863,18.093781274071112,997.5628442489135,17.027668725928866,1035.8999999999999,15.964012499999995" shape-rendering="crispEdges" fill="rgb(127,127,127)" fill-opacity="0.005" stroke="rgb(127,127,127)" stroke-opacity="0.005" stroke-width="10"/></g></g></g><g><circle cursor="pointer" fill="rgb(127,127,127)" fill-opacity="0.00001" stroke="rgb(127,127,127)" stroke-opacity="0.00001" cx="115.1" cy="49.90893750000001" r="3.4641016151377544"/><circle cursor="pointer" fill="rgb(127,127,127)" fill-opacity="0.00001" stroke="rgb(127,127,127)" stroke-opacity="0.00001" cx="345.29999999999995" cy="46.77776250000002" r="3.4641016151377544"/><circle cursor="pointer" fill="rgb(127,127,127)" stroke="rgb(127,127,127)" cx="575.5" cy="27.26861249999999" r="3.4641016151377544" fill-opacity="0.00001" stroke-opacity="0.00001"/><circle cursor="pointer" fill="rgb(127,127,127)" stroke="rgb(127,127,127)" cx="805.6999999999999" cy="22.350862500000005" r="3.4641016151377544" fill-opacity="0.00001" stroke-opacity="0.00001"/><circle cursor="pointer" fill="rgb(127,127,127)" fill-opacity="0.00001" stroke="rgb(127,127,127)" stroke-opacity="0.00001" cx="1035.8999999999999" cy="15.964012499999995" r="3.4641016151377544"/></g><g><g><g pointer-events="none"><path pointer-events="none" cursor="pointer" d="M115.1,149.44979999999998C153.46481370082589,149.18317537758938,191.8345521654727,148.8661305134425,230.2,148.6498875C268.5654478345273,148.4336444865575,306.94878573444714,148.61979208608926,345.29999999999995,147.849975C383.65121426555277,147.08015791391074,422.10267113232885,144.58201216836957,460.4,142.95245625C498.6973288676711,141.32290033163045,537.1601905852484,139.0696797923227,575.5,138.0549375C613.8398094147516,137.0401952076773,652.2374698784371,137.25809454605815,690.5999999999999,136.8597375C728.9625301215627,136.46138045394184,767.3389007603566,136.1266766787689,805.6999999999999,135.6645375C844.0610992396432,135.2023983212311,882.4405436847985,134.61241364504778,920.8,134.0865C959.1594563152014,133.56058635495222,997.5405436847984,133.0343761450478,1035.8999999999999,132.5084625L1035.8999999999999,249C997.5333333333332,249,959.1666666666666,249,920.8,249C882.4333333333333,249,844.0666666666666,249,805.6999999999999,249C767.3333333333333,249,728.9666666666666,249,690.5999999999999,249C652.2333333333332,249,613.8666666666667,249,575.5,249C537.1333333333333,249,498.76666666666665,249,460.4,249C422.0333333333333,249,383.66666666666663,249,345.29999999999995,249C306.9333333333333,249,268.56666666666666,249,230.2,249C191.83333333333331,249,153.46666666666667,249,115.1,249Z" fill="rgb(174,199,232)"/></g><g><path cursor="pointer" d="M115.1,149.44979999999998C153.46481370082589,149.18317537758938,191.8345521654727,148.8661305134425,230.2,148.6498875L230.2,249C191.83333333333331,249,153.46666666666667,249,115.1,249Z" shape-rendering="crispEdges" fill="rgb(127,127,127)" fill-opacity="0.005"/><path cursor="pointer" d="M230.2,148.6498875C268.5654478345273,148.4336444865575,306.94878573444714,148.61979208608926,345.29999999999995,147.849975L345.29999999999995,249C306.9333333333333,249,268.56666666666666,249,230.2,249Z" shape-rendering="crispEdges" fill="rgb(127,127,127)" fill-opacity="0.005"/><path cursor="pointer" d="M345.29999999999995,147.849975C383.65121426555277,147.08015791391074,422.10267113232885,144.58201216836957,460.4,142.95245625L460.4,249C422.0333333333333,249,383.66666666666663,249,345.29999999999995,249Z" shape-rendering="crispEdges" fill="rgb(127,127,127)" fill-opacity="0.005"/><path cursor="pointer" d="M460.4,142.95245625C498.6973288676711,141.32290033163045,537.1601905852484,139.0696797923227,575.5,138.0549375L575.5,249C537.1333333333333,249,498.76666666666665,249,460.4,249Z" shape-rendering="crispEdges" fill="rgb(127,127,127)" fill-opacity="0.005"/><path cursor="pointer" d="M575.5,138.0549375C613.8398094147516,137.0401952076773,652.2374698784371,137.25809454605815,690.5999999999999,136.8597375L690.5999999999999,249C652.2333333333332,249,613.8666666666667,249,575.5,249Z" shape-rendering="crispEdges" fill="rgb(127,127,127)" fill-opacity="0.005"/><path cursor="pointer" d="M690.5999999999999,136.8597375C728.9625301215627,136.46138045394184,767.3389007603566,136.1266766787689,805.6999999999999,135.6645375L805.6999999999999,249C767.3333333333333,249,728.9666666666666,249,690.5999999999999,249Z" shape-rendering="crispEdges" fill="rgb(127,127,127)" fill-opacity="0.005"/><path cursor="pointer" d="M805.6999999999999,135.6645375C844.0610992396432,135.2023983212311,882.4405436847985,134.61241364504778,920.8,134.0865L920.8,249C882.4333333333333,249,844.0666666666666,249,805.6999999999999,249Z" shape-rendering="crispEdges" fill="rgb(127,127,127)" fill-opacity="0.005"/><path cursor="pointer" d="M920.8,134.0865C959.1594563152014,133.56058635495222,997.5405436847984,133.0343761450478,1035.8999999999999,132.5084625L1035.8999999999999,249C997.5333333333332,249,959.1666666666666,249,920.8,249Z" shape-rendering="crispEdges" fill="rgb(127,127,127)" fill-opacity="0.005"/></g></g></g><g><g><g pointer-events="none"><path pointer-events="none" cursor="pointer" d="M115.1,149.44979999999998C153.46481370082589,149.18317537758938,191.8345521654727,148.8661305134425,230.2,148.6498875C268.5654478345273,148.4336444865575,306.94878573444714,148.61979208608926,345.29999999999995,147.849975C383.65121426555277,147.08015791391074,422.10267113232885,144.58201216836957,460.4,142.95245625C498.6973288676711,141.32290033163045,537.1601905852484,139.0696797923227,575.5,138.0549375C613.8398094147516,137.0401952076773,652.2374698784371,137.25809454605815,690.5999999999999,136.8597375C728.9625301215627,136.46138045394184,767.3389007603566,136.1266766787689,805.6999999999999,135.6645375C844.0610992396432,135.2023983212311,882.4405436847985,134.61241364504778,920.8,134.0865C959.1594563152014,133.56058635495222,997.5405436847984,133.0343761450478,1035.8999999999999,132.5084625" stroke="rgb(140,160,187)"/></g><g><path cursor="pointer" d="M115.1,149.44979999999998C153.46481370082589,149.18317537758938,191.8345521654727,148.8661305134425,230.2,148.6498875" shape-rendering="crispEdges" fill="rgb(127,127,127)" fill-opacity="0.005" stroke="rgb(127,127,127)" stroke-opacity="0.005" stroke-width="10"/><path cursor="pointer" d="M230.2,148.6498875C268.5654478345273,148.4336444865575,306.94878573444714,148.61979208608926,345.29999999999995,147.849975" shape-rendering="crispEdges" fill="rgb(127,127,127)" fill-opacity="0.005" stroke="rgb(127,127,127)" stroke-opacity="0.005" stroke-width="10"/><path cursor="pointer" d="M345.29999999999995,147.849975C383.65121426555277,147.08015791391074,422.10267113232885,144.58201216836957,460.4,142.95245625" shape-rendering="crispEdges" fill="rgb(127,127,127)" fill-opacity="0.005" stroke="rgb(127,127,127)" stroke-opacity="0.005" stroke-width="10"/><path cursor="pointer" d="M460.4,142.95245625C498.6973288676711,141.32290033163045,537.1601905852484,139.0696797923227,575.5,138.0549375" shape-rendering="crispEdges" fill="rgb(127,127,127)" fill-opacity="0.005" stroke="rgb(127,127,127)" stroke-opacity="0.005" stroke-width="10"/><path cursor="pointer" d="M575.5,138.0549375C613.8398094147516,137.0401952076773,652.2374698784371,137.25809454605815,690.5999999999999,136.8597375" shape-rendering="crispEdges" fill="rgb(127,127,127)" fill-opacity="0.005" stroke="rgb(127,127,127)" stroke-opacity="0.005" stroke-width="10"/><path cursor="pointer" d="M690.5999999999999,136.8597375C728.9625301215627,136.46138045394184,767.3389007603566,136.1266766787689,805.6999999999999,135.6645375" shape-rendering="crispEdges" fill="rgb(127,127,127)" fill-opacity="0.005" stroke="rgb(127,127,127)" stroke-opacity="0.005" stroke-width="10"/><path cursor="pointer" d="M805.6999999999999,135.6645375C844.0610992396432,135.2023983212311,882.4405436847985,134.61241364504778,920.8,134.0865" shape-rendering="crispEdges" fill="rgb(127,127,127)" fill-opacity="0.005" stroke="rgb(127,127,127)" stroke-opacity="0.005" stroke-width="10"/><path cursor="pointer" d="M920.8,134.0865C959.1594563152014,133.56058635495222,997.5405436847984,133.0343761450478,1035.8999999999999,132.5084625" shape-rendering="crispEdges" fill="rgb(127,127,127)" fill-opacity="0.005" stroke="rgb(127,127,127)" stroke-opacity="0.005" stroke-width="10"/></g></g></g><g><circle cursor="pointer" fill="rgb(127,127,127)" fill-opacity="0.00001" stroke="rgb(127,127,127)" stroke-opacity="0.00001" cx="115.1" cy="149.44979999999998" r="3.4641016151377544"/><circle cursor="pointer" fill="rgb(127,127,127)" fill-opacity="0.00001" stroke="rgb(127,127,127)" stroke-opacity="0.00001" cx="345.29999999999995" cy="147.849975" r="3.4641016151377544"/><circle cursor="pointer" fill="rgb(127,127,127)" fill-opacity="0.00001" stroke="rgb(127,127,127)" stroke-opacity="0.00001" cx="575.5" cy="138.0549375" r="3.4641016151377544"/><circle cursor="pointer" fill="rgb(127,127,127)" fill-opacity="0.00001" stroke="rgb(127,127,127)" stroke-opacity="0.00001" cx="805.6999999999999" cy="135.6645375" r="3.4641016151377544"/><circle cursor="pointer" fill="rgb(127,127,127)" fill-opacity="0.00001" stroke="rgb(127,127,127)" stroke-opacity="0.00001" cx="1035.8999999999999" cy="132.5084625" r="3.4641016151377544"/></g></g></g><g transform="translate(0,4)"><g transform="translate(21,249)"><g transform="translate(115.1,0)"><text pointer-events="all" cursor="pointer" y="3" dy=".71em" transform="translate(0,6)" fill="rgb(102,102,102)" text-anchor="middle" style="font: 9px sans-serif;">[10 - 15)</text></g><g transform="translate(345.29999999999995,0)"><text pointer-events="all" cursor="pointer" y="3" dy=".71em" transform="translate(0,6)" fill="rgb(102,102,102)" text-anchor="middle" style="font: 9px sans-serif;">[5 - 10)</text></g><g transform="translate(575.5,0)"><text pointer-events="all" cursor="pointer" y="3" dy=".71em" transform="translate(0,6)" fill="rgb(102,102,102)" text-anchor="middle" style="font: 9px sans-serif;">[20+</text></g><g transform="translate(805.6999999999999,0)"><text pointer-events="all" cursor="pointer" y="3" dy=".71em" transform="translate(0,6)" fill="rgb(102,102,102)" text-anchor="middle" style="font: 9px sans-serif;">#null</text></g><g transform="translate(1035.8999999999999,0)"><text pointer-events="all" cursor="pointer" y="3" dy=".71em" transform="translate(0,6)" fill="rgb(102,102,102)" text-anchor="middle" style="font: 9px sans-serif;">[0 - 5)</text></g></g><g transform="translate(21,249)"><line shape-rendering="crispEdges" pointer-events="none" x1="0" y1="0" x2="1151" y2="0" stroke="rgb(102,102,102)" stroke-width="1" stroke-linecap="square"/></g></g><g transform="translate(0,4)"><g><g><line shape-rendering="crispEdges" pointer-events="none" x1="15" y1="249" x2="21" y2="249" stroke="rgb(102,102,102)" stroke-width="1"/></g><g><text pointer-events="all" x="-3" dy=".35em" transform="translate(15,249)" fill="rgb(102,102,102)" text-anchor="end" style="font: 9px sans-serif;">0</text></g><g><line shape-rendering="crispEdges" pointer-events="none" x1="15" y1="217.875" x2="21" y2="217.875" stroke="rgb(102,102,102)" stroke-width="1"/></g><g><text pointer-events="all" x="-3" dy=".35em" transform="translate(15,217.875)" fill="rgb(102,102,102)" text-anchor="end" style="font: 9px sans-serif;">1</text></g><g><line shape-rendering="crispEdges" pointer-events="none" x1="15" y1="186.75" x2="21" y2="186.75" stroke="rgb(102,102,102)" stroke-width="1"/></g><g><text pointer-events="all" x="-3" dy=".35em" transform="translate(15,186.75)" fill="rgb(102,102,102)" text-anchor="end" style="font: 9px sans-serif;">2</text></g><g><line shape-rendering="crispEdges" pointer-events="none" x1="15" y1="155.625" x2="21" y2="155.625" stroke="rgb(102,102,102)" stroke-width="1"/></g><g><text pointer-events="all" x="-3" dy=".35em" transform="translate(15,155.625)" fill="rgb(102,102,102)" text-anchor="end" style="font: 9px sans-serif;">3</text></g><g><line shape-rendering="crispEdges" pointer-events="none" x1="15" y1="124.5" x2="21" y2="124.5" stroke="rgb(102,102,102)" stroke-width="1"/></g><g><text pointer-events="all" x="-3" dy=".35em" transform="translate(15,124.5)" fill="rgb(102,102,102)" text-anchor="end" style="font: 9px sans-serif;">4</text></g><g><line shape-rendering="crispEdges" pointer-events="none" x1="15" y1="93.375" x2="21" y2="93.375" stroke="rgb(102,102,102)" stroke-width="1"/></g><g><text pointer-events="all" x="-3" dy=".35em" transform="translate(15,93.375)" fill="rgb(102,102,102)" text-anchor="end" style="font: 9px sans-serif;">5</text></g><g><line shape-rendering="crispEdges" pointer-events="none" x1="15" y1="62.25" x2="21" y2="62.25" stroke="rgb(102,102,102)" stroke-width="1"/></g><g><text pointer-events="all" x="-3" dy=".35em" transform="translate(15,62.25)" fill="rgb(102,102,102)" text-anchor="end" style="font: 9px sans-serif;">6</text></g><g><line shape-rendering="crispEdges" pointer-events="none" x1="15" y1="31.125" x2="21" y2="31.125" stroke="rgb(102,102,102)" stroke-width="1"/></g><g><text pointer-events="all" x="-3" dy=".35em" transform="translate(15,31.125)" fill="rgb(102,102,102)" text-anchor="end" style="font: 9px sans-serif;">7</text></g><g><line shape-rendering="crispEdges" pointer-events="none" x1="15" y1="0" x2="21" y2="0" stroke="rgb(102,102,102)" stroke-width="1"/></g><g><text pointer-events="all" x="-3" dy=".35em" transform="translate(15,0)" fill="rgb(102,102,102)" text-anchor="end" style="font: 9px sans-serif;">8</text></g></g><g><line shape-rendering="crispEdges" pointer-events="none" x1="21" y1="0" x2="21" y2="249" stroke="rgb(102,102,102)" stroke-width="1" stroke-linecap="square"/></g></g></g></g></g><g/><rect pointer-events="stroke" width="1178" height="306" stroke-opacity="0"/></svg>