<svg xmlns="http://www.w3.org/2000/svg" font-size="10px" font-family="sans-serif" fill="none" stroke="none" stroke-width="1.5" style="-webkit-touch-callout: none; -webkit-user-select: none; -khtml-user-select: none; -moz-user-select: none; -ms-user-select: none; user-select: none;" width="1438" height="346"><defs/><rect pointer-events="all" width="1438" height="346" fill="rgb(127,127,127)" fill-opacity="0.00001"/><g><g transform="translate(3,3)"><g transform="translate(1207.984375,0)"><g clip-path="url(#3cd)"><clipPath id="3cd"><rect x="5" y="5" width="214.015625" height="15"/></clipPath><g transform="translate(5,5)"><g><rect cursor="pointer" width="133.015625" height="15" fill="rgb(200,200,200)" fill-opacity="0.0001"/><g><g><g><path cursor="pointer" fill="rgb(31,119,180)" stroke="rgb(31,119,180)" transform="translate(7.5,7.5)" d="M-3.872983346207417,-3.872983346207417L3.872983346207417,-3.872983346207417 3.872983346207417,3.872983346207417 -3.872983346207417,3.872983346207417Z" shape-rendering="crispEdges"/></g></g><g><text pointer-events="none" x="2" dy=".35em" transform="translate(15,7.5)" fill="rgb(0,0,0)">AverageBikesAvailable</text></g></g><rect cursor="pointer" x="138.015625" width="76" height="15" fill="rgb(200,200,200)" fill-opacity="0.0001"/><g transform="translate(138.015625,0)"><g><g><path cursor="pointer" fill="rgb(174,199,232)" stroke="rgb(174,199,232)" transform="translate(7.5,7.5)" d="M-3.872983346207417,-3.872983346207417L3.872983346207417,-3.872983346207417 3.872983346207417,3.872983346207417 -3.872983346207417,3.872983346207417Z" shape-rendering="crispEdges"/></g></g><g><text pointer-events="none" x="2" dy=".35em" transform="translate(15,7.5)" fill="rgb(0,0,0)">TotalTraffic</text></g></g></g></g></g></g></g><g transform="translate(3,3)"><g transform="translate(0,30)"><g transform="translate(0,4)"/><g transform="translate(0,4)"><g transform="translate(54,1.4210854715202004e-14)"><g><g><rect shape-rendering="crispEdges" cursor="pointer" x="4.306249999999999" y="183.59709905879998" width="34.880625" height="1" fill="rgb(31,119,180)"/><rect shape-rendering="crispEdges" cursor="pointer" x="90.43125" y="183.59627732639998" width="34.880625" height="1" fill="rgb(31,119,180)"/><rect shape-rendering="crispEdges" cursor="pointer" x="176.55625" y="183.5961007032" width="34.880625" height="1" fill="rgb(31,119,180)"/><rect shape-rendering="crispEdges" cursor="pointer" x="262.68125" y="183.5960754276" width="34.880625" height="1" fill="rgb(31,119,180)"/><rect shape-rendering="crispEdges" cursor="pointer" x="348.80625" y="183.5958290976" width="34.880625" height="1" fill="rgb(31,119,180)"/><rect shape-rendering="crispEdges" cursor="pointer" x="434.93125" y="183.5944935912" width="34.880625" height="1" fill="rgb(31,119,180)"/><rect shape-rendering="crispEdges" cursor="pointer" x="521.05625" y="183.59441684639998" width="34.880625" height="1" fill="rgb(31,119,180)"/><rect shape-rendering="crispEdges" cursor="pointer" x="607.18125" y="183.5942418756" width="34.880625" height="1" fill="rgb(31,119,180)"/><rect shape-rendering="crispEdges" cursor="pointer" x="693.30625" y="183.594044322" width="34.880625" height="1" fill="rgb(31,119,180)"/><rect shape-rendering="crispEdges" cursor="pointer" x="779.43125" y="183.5937206964" width="34.880625" height="1" fill="rgb(31,119,180)"/><rect shape-rendering="crispEdges" cursor="pointer" x="865.55625" y="183.59371347479998" width="34.880625" height="1" fill="rgb(31,119,180)"/><rect shape-rendering="crispEdges" cursor="pointer" x="951.68125" y="183.5935427268" width="34.880625" height="1" fill="rgb(31,119,180)"/><rect shape-rendering="crispEdges" cursor="pointer" x="1037.80625" y="183.5934730812" width="34.880625" height="1" fill="rgb(31,119,180)"/><rect shape-rendering="crispEdges" cursor="pointer" x="1123.93125" y="183.5925209316" width="34.880625" height="1" fill="rgb(31,119,180)"/><rect shape-rendering="crispEdges" cursor="pointer" x="1210.05625" y="183.5924013468" width="34.880625" height="1" fill="rgb(31,119,180)"/><rect shape-rendering="crispEdges" cursor="pointer" x="1296.18125" y="183.5923427784" width="34.880625" height="1" fill="rgb(31,119,180)"/></g><g><rect shape-rendering="crispEdges" cursor="pointer" x="46.938125" y="177.44328" width="34.880625" height="6.156719999999999" fill="rgb(174,199,232)"/><rect shape-rendering="crispEdges" cursor="pointer" x="133.063125" y="172.51484399999998" width="34.880625" height="11.085156" fill="rgb(174,199,232)"/><rect shape-rendering="crispEdges" cursor="pointer" x="219.188125" y="180.293364" width="34.880625" height="3.306636" fill="rgb(174,199,232)"/><rect shape-rendering="crispEdges" cursor="pointer" x="305.31312499999996" y="179.199108" width="34.880625" height="4.400892" fill="rgb(174,199,232)"/><rect shape-rendering="crispEdges" cursor="pointer" x="391.43812499999996" y="146.8953" width="34.880625" height="36.704699999999995" fill="rgb(174,199,232)"/><rect shape-rendering="crispEdges" cursor="pointer" x="477.56312499999996" y="83.65060799999999" width="34.880625" height="99.949392" fill="rgb(174,199,232)"/><rect shape-rendering="crispEdges" cursor="pointer" x="563.688125" y="149.564232" width="34.880625" height="34.035768" fill="rgb(174,199,232)"/><rect shape-rendering="crispEdges" cursor="pointer" x="649.813125" y="103.60180799999999" width="34.880625" height="79.998192" fill="rgb(174,199,232)"/><rect shape-rendering="crispEdges" cursor="pointer" x="735.938125" y="168.04296" width="34.880625" height="15.557039999999999" fill="rgb(174,199,232)"/><rect shape-rendering="crispEdges" cursor="pointer" x="822.063125" y="26.077932000000004" width="34.880625" height="157.522068" fill="rgb(174,199,232)"/><rect shape-rendering="crispEdges" cursor="pointer" x="908.188125" y="141.771636" width="34.880625" height="41.82836399999999" fill="rgb(174,199,232)"/><rect shape-rendering="crispEdges" cursor="pointer" x="994.313125" y="154.824984" width="34.880625" height="28.775015999999997" fill="rgb(174,199,232)"/><rect shape-rendering="crispEdges" cursor="pointer" x="1080.4381250000001" y="109.482516" width="34.880625" height="74.11748399999999" fill="rgb(174,199,232)"/><rect shape-rendering="crispEdges" cursor="pointer" x="1166.5631250000001" y="169.407108" width="34.880625" height="14.192892" fill="rgb(174,199,232)"/><rect shape-rendering="crispEdges" cursor="pointer" x="1252.6881250000001" y="170.244936" width="34.880625" height="13.355063999999999" fill="rgb(174,199,232)"/><rect shape-rendering="crispEdges" cursor="pointer" x="1338.8131250000001" y="168.64027199999998" width="34.880625" height="14.959727999999998" fill="rgb(174,199,232)"/></g></g></g></g><g transform="translate(0,4)"><g transform="translate(54,183.6)"><g transform="translate(43.0625,0)"><text pointer-events="all" cursor="pointer" x="-3" dy=".35em" transform="translate(0,6) rotate(-90)" fill="rgb(102,102,102)" text-anchor="end" style="font: 9px sans-serif;">Horta-Guinardó</text></g><g transform="translate(129.1875,0)"><text pointer-events="all" cursor="pointer" x="-3" dy=".35em" transform="translate(0,6) rotate(-90)" fill="rgb(102,102,102)" text-anchor="end" style="font: 9px sans-serif;">Sarrià - Sant Gervasi</text></g><g transform="translate(215.3125,0)"><text pointer-events="all" cursor="pointer" x="-3" dy=".35em" transform="translate(0,6) rotate(-90)" fill="rgb(102,102,102)" text-anchor="end" style="font: 9px sans-serif;">Vila de Gràcia</text></g><g transform="translate(301.4375,0)"><text pointer-events="all" cursor="pointer" x="-3" dy=".35em" transform="translate(0,6) rotate(-90)" fill="rgb(102,102,102)" text-anchor="end" style="font: 9px sans-serif;">Gràcia</text></g><g transform="translate(387.5625,0)"><text pointer-events="all" cursor="pointer" x="-3" dy=".35em" transform="translate(0,6) rotate(-90)" fill="rgb(102,102,102)" text-anchor="end" style="font: 9px sans-serif;">Les Corts</text></g><g transform="translate(473.6875,0)"><text pointer-events="all" cursor="pointer" x="-3" dy=".35em" transform="translate(0,6) rotate(-90)" fill="rgb(102,102,102)" text-anchor="end" style="font: 9px sans-serif;">Sant Marti</text></g><g transform="translate(559.8125,0)"><text pointer-events="all" cursor="pointer" x="-3" dy=".35em" transform="translate(0,6) rotate(-90)" fill="rgb(102,102,102)" text-anchor="end" style="font: 9px sans-serif;">Sarrià-Sant Gervasi</text></g><g transform="translate(645.9375,0)"><text pointer-events="all" cursor="pointer" x="-3" dy=".35em" transform="translate(0,6) rotate(-90)" fill="rgb(102,102,102)" text-anchor="end" style="font: 9px sans-serif;">Ciutat Vella</text></g><g transform="translate(732.0625,0)"><text pointer-events="all" cursor="pointer" x="-3" dy=".35em" transform="translate(0,6) rotate(-90)" fill="rgb(102,102,102)" text-anchor="end" style="font: 9px sans-serif;">Nou Barris</text></g><g transform="translate(818.1875,0)"><text pointer-events="all" cursor="pointer" x="-3" dy=".35em" transform="translate(0,6) rotate(-90)" fill="rgb(102,102,102)" text-anchor="end" style="font: 9px sans-serif;">Eixample</text></g><g transform="translate(904.3125,0)"><text pointer-events="all" cursor="pointer" x="-3" dy=".35em" transform="translate(0,6) rotate(-90)" fill="rgb(102,102,102)" text-anchor="end" style="font: 9px sans-serif;">Sants - Montjuïc</text></g><g transform="translate(990.4375,0)"><text pointer-events="all" cursor="pointer" x="-3" dy=".35em" transform="translate(0,6) rotate(-90)" fill="rgb(102,102,102)" text-anchor="end" style="font: 9px sans-serif;">Sant Andreu</text></g><g transform="translate(1076.5625,0)"><text pointer-events="all" cursor="pointer" x="-3" dy=".35em" transform="translate(0,6) rotate(-90)" fill="rgb(102,102,102)" text-anchor="end" style="font: 9px sans-serif;">#null</text></g><g transform="translate(1162.6875,0)"><text pointer-events="all" cursor="pointer" x="-3" dy=".35em" transform="translate(0,6) rotate(-90)" fill="rgb(102,102,102)" text-anchor="end" style="font: 9px sans-serif;">Districte de Sant An..</text></g><g transform="translate(1248.8125,0)"><text pointer-events="all" cursor="pointer" x="-3" dy=".35em" transform="translate(0,6) rotate(-90)" fill="rgb(102,102,102)" text-anchor="end" style="font: 9px sans-serif;">Districte de Sant Ma..</text></g><g transform="translate(1334.9375,0)"><text pointer-events="all" cursor="pointer" x="-3" dy=".35em" transform="translate(0,6) rotate(-90)" fill="rgb(102,102,102)" text-anchor="end" style="font: 9px sans-serif;">Sants-Montjuïc</text></g></g><g transform="translate(54,183.6)"><line shape-rendering="crispEdges" pointer-events="none" x1="0" y1="0" x2="1378" y2="0" stroke="rgb(102,102,102)" stroke-width="1" stroke-linecap="square"/></g></g><g transform="translate(0,4)"><g transform="translate(0,1.4210854715202004e-14)"><g><line shape-rendering="crispEdges" pointer-events="none" x1="48" y1="183.6" x2="54" y2="183.6" stroke="rgb(102,102,102)" stroke-width="1"/></g><g><text pointer-events="all" x="-3" dy=".35em" transform="translate(48,183.6)" fill="rgb(102,102,102)" text-anchor="end" style="font: 9px sans-serif;">0</text></g><g><line shape-rendering="crispEdges" pointer-events="none" x1="48" y1="153" x2="54" y2="153" stroke="rgb(102,102,102)" stroke-width="1"/></g><g><text pointer-events="all" x="-3" dy=".35em" transform="translate(48,153)" fill="rgb(102,102,102)" text-anchor="end" style="font: 9px sans-serif;">50,000</text></g><g><line shape-rendering="crispEdges" pointer-events="none" x1="48" y1="122.4" x2="54" y2="122.4" stroke="rgb(102,102,102)" stroke-width="1"/></g><g><text pointer-events="all" x="-3" dy=".35em" transform="translate(48,122.4)" fill="rgb(102,102,102)" text-anchor="end" style="font: 9px sans-serif;">100,000</text></g><g><line shape-rendering="crispEdges" pointer-events="none" x1="48" y1="91.8" x2="54" y2="91.8" stroke="rgb(102,102,102)" stroke-width="1"/></g><g><text pointer-events="all" x="-3" dy=".35em" transform="translate(48,91.8)" fill="rgb(102,102,102)" text-anchor="end" style="font: 9px sans-serif;">150,000</text></g><g><line shape-rendering="crispEdges" pointer-events="none" x1="48" y1="61.2" x2="54" y2="61.2" stroke="rgb(102,102,102)" stroke-width="1"/></g><g><text pointer-events="all" x="-3" dy=".35em" transform="translate(48,61.2)" fill="rgb(102,102,102)" text-anchor="end" style="font: 9px sans-serif;">200,000</text></g><g><line shape-rendering="crispEdges" pointer-events="none" x1="48" y1="30.599999999999994" x2="54" y2="30.599999999999994" stroke="rgb(102,102,102)" stroke-width="1"/></g><g><text pointer-events="all" x="-3" dy=".35em" transform="translate(48,30.599999999999994)" fill="rgb(102,102,102)" text-anchor="end" style="font: 9px sans-serif;">250,000</text></g><g><line shape-rendering="crispEdges" pointer-events="none" x1="48" y1="0" x2="54" y2="0" stroke="rgb(102,102,102)" stroke-width="1"/></g><g><text pointer-events="all" x="-3" dy=".35em" transform="translate(48,0)" fill="rgb(102,102,102)" text-anchor="end" style="font: 9px sans-serif;">300,000</text></g></g><g transform="translate(0,1.4210854715202004e-14)"><line shape-rendering="crispEdges" pointer-events="none" x1="54" y1="0" x2="54" y2="183.6" stroke="rgb(102,102,102)" stroke-width="1" stroke-linecap="square"/></g></g></g></g></g><g/><rect pointer-events="stroke" width="1438" height="346" stroke-opacity="0"/></svg>