<svg xmlns="http://www.w3.org/2000/svg" font-size="10px" font-family="sans-serif" fill="none" stroke="none" stroke-width="1.5" style="-webkit-touch-callout: none; -webkit-user-select: none; -khtml-user-select: none; -moz-user-select: none; -ms-user-select: none; user-select: none;" width="1438" height="318"><defs/><rect pointer-events="all" width="1438" height="318" fill="rgb(127,127,127)" fill-opacity="0.00001"/><g><g transform="translate(3,3)"><g transform="translate(1089.96875,0)"><g clip-path="url(#140)"><clipPath id="140"><rect x="5" y="5" width="332.03125" height="15"/></clipPath><g transform="translate(5,5)"><g><rect cursor="pointer" width="133.015625" height="15" fill="rgb(200,200,200)" fill-opacity="0.0001"/><g><g><g><line shape-rendering="crispEdges" cursor="pointer" x1="0" y1="7.5" x2="15" y2="7.5" stroke="rgb(31,119,180)"/></g></g><g><text pointer-events="none" x="2" dy=".35em" transform="translate(15,7.5)" fill="rgb(0,0,0)">AverageBikesAvailable</text></g></g><rect cursor="pointer" x="138.015625" width="83" height="15" fill="rgb(200,200,200)" fill-opacity="0.0001"/><g transform="translate(138.015625,0)"><g><g><line shape-rendering="crispEdges" cursor="pointer" x1="0" y1="7.5" x2="15" y2="7.5" stroke="rgb(174,199,232)"/></g></g><g><text pointer-events="none" x="2" dy=".35em" transform="translate(15,7.5)" fill="rgb(0,0,0)">AverageLent</text></g></g><rect cursor="pointer" x="226.015625" width="106.015625" height="15" fill="rgb(200,200,200)" fill-opacity="0.0001"/><g transform="translate(226.015625,0)"><g><g><line shape-rendering="crispEdges" cursor="pointer" x1="0" y1="7.5" x2="15" y2="7.5" stroke="rgb(255,127,14)"/></g></g><g><text pointer-events="none" x="2" dy=".35em" transform="translate(15,7.5)" fill="rgb(0,0,0)">AverageReturned</text></g></g></g></g></g></g></g><g transform="translate(3,3)"><g transform="translate(0,30)"><g transform="translate(0,4)"><g transform="translate(27,0)"/></g><g transform="translate(0,4)"><g transform="translate(27,251)"><g transform="translate(70.25,0)"><text pointer-events="all" cursor="pointer" x="-3" dy=".35em" transform="translate(0,6) rotate(-90)" fill="rgb(102,102,102)" text-anchor="end" style="font: 9px sans-serif;">24</text></g><g transform="translate(210.75,0)"><text pointer-events="all" cursor="pointer" x="-3" dy=".35em" transform="translate(0,6) rotate(-90)" fill="rgb(102,102,102)" text-anchor="end" style="font: 9px sans-serif;">25</text></g><g transform="translate(351.25,0)"><text pointer-events="all" cursor="pointer" x="-3" dy=".35em" transform="translate(0,6) rotate(-90)" fill="rgb(102,102,102)" text-anchor="end" style="font: 9px sans-serif;">45</text></g><g transform="translate(491.75,0)"><text pointer-events="all" cursor="pointer" x="-3" dy=".35em" transform="translate(0,6) rotate(-90)" fill="rgb(102,102,102)" text-anchor="end" style="font: 9px sans-serif;">46</text></g><g transform="translate(632.25,0)"><text pointer-events="all" cursor="pointer" x="-3" dy=".35em" transform="translate(0,6) rotate(-90)" fill="rgb(102,102,102)" text-anchor="end" style="font: 9px sans-serif;">47</text></g><g transform="translate(772.75,0)"><text pointer-events="all" cursor="pointer" x="-3" dy=".35em" transform="translate(0,6) rotate(-90)" fill="rgb(102,102,102)" text-anchor="end" style="font: 9px sans-serif;">48</text></g><g transform="translate(913.25,0)"><text pointer-events="all" cursor="pointer" x="-3" dy=".35em" transform="translate(0,6) rotate(-90)" fill="rgb(102,102,102)" text-anchor="end" style="font: 9px sans-serif;">49</text></g><g transform="translate(1053.75,0)"><text pointer-events="all" cursor="pointer" x="-3" dy=".35em" transform="translate(0,6) rotate(-90)" fill="rgb(102,102,102)" text-anchor="end" style="font: 9px sans-serif;">50</text></g><g transform="translate(1194.25,0)"><text pointer-events="all" cursor="pointer" x="-3" dy=".35em" transform="translate(0,6) rotate(-90)" fill="rgb(102,102,102)" text-anchor="end" style="font: 9px sans-serif;">51</text></g><g transform="translate(1334.75,0)"><text pointer-events="all" cursor="pointer" x="-3" dy=".35em" transform="translate(0,6) rotate(-90)" fill="rgb(102,102,102)" text-anchor="end" style="font: 9px sans-serif;">52</text></g></g><g transform="translate(27,251)"><line shape-rendering="crispEdges" pointer-events="none" x1="0" y1="0" x2="1405" y2="0" stroke="rgb(102,102,102)" stroke-width="1" stroke-linecap="square"/></g></g><g transform="translate(0,4)"><g><g transform="translate(0,10.04)"><g><line shape-rendering="crispEdges" pointer-events="none" x1="21" y1="240.96" x2="27" y2="240.96" stroke="rgb(102,102,102)" stroke-width="1"/></g><g><text pointer-events="all" x="-3" dy=".35em" transform="translate(21,240.96)" fill="rgb(102,102,102)" text-anchor="end" style="font: 9px sans-serif;">0</text></g><g><line shape-rendering="crispEdges" pointer-events="none" x1="21" y1="216.864" x2="27" y2="216.864" stroke="rgb(102,102,102)" stroke-width="1"/></g><g><text pointer-events="all" x="-3" dy=".35em" transform="translate(21,216.864)" fill="rgb(102,102,102)" text-anchor="end" style="font: 9px sans-serif;">1</text></g><g><line shape-rendering="crispEdges" pointer-events="none" x1="21" y1="192.768" x2="27" y2="192.768" stroke="rgb(102,102,102)" stroke-width="1"/></g><g><text pointer-events="all" x="-3" dy=".35em" transform="translate(21,192.768)" fill="rgb(102,102,102)" text-anchor="end" style="font: 9px sans-serif;">2</text></g><g><line shape-rendering="crispEdges" pointer-events="none" x1="21" y1="168.67200000000003" x2="27" y2="168.67200000000003" stroke="rgb(102,102,102)" stroke-width="1"/></g><g><text pointer-events="all" x="-3" dy=".35em" transform="translate(21,168.67200000000003)" fill="rgb(102,102,102)" text-anchor="end" style="font: 9px sans-serif;">3</text></g><g><line shape-rendering="crispEdges" pointer-events="none" x1="21" y1="144.576" x2="27" y2="144.576" stroke="rgb(102,102,102)" stroke-width="1"/></g><g><text pointer-events="all" x="-3" dy=".35em" transform="translate(21,144.576)" fill="rgb(102,102,102)" text-anchor="end" style="font: 9px sans-serif;">4</text></g><g><line shape-rendering="crispEdges" pointer-events="none" x1="21" y1="120.48" x2="27" y2="120.48" stroke="rgb(102,102,102)" stroke-width="1"/></g><g><text pointer-events="all" x="-3" dy=".35em" transform="translate(21,120.48)" fill="rgb(102,102,102)" text-anchor="end" style="font: 9px sans-serif;">5</text></g><g><line shape-rendering="crispEdges" pointer-events="none" x1="21" y1="96.38400000000001" x2="27" y2="96.38400000000001" stroke="rgb(102,102,102)" stroke-width="1"/></g><g><text pointer-events="all" x="-3" dy=".35em" transform="translate(21,96.38400000000001)" fill="rgb(102,102,102)" text-anchor="end" style="font: 9px sans-serif;">6</text></g><g><line shape-rendering="crispEdges" pointer-events="none" x1="21" y1="72.28800000000001" x2="27" y2="72.28800000000001" stroke="rgb(102,102,102)" stroke-width="1"/></g><g><text pointer-events="all" x="-3" dy=".35em" transform="translate(21,72.28800000000001)" fill="rgb(102,102,102)" text-anchor="end" style="font: 9px sans-serif;">7</text></g><g><line shape-rendering="crispEdges" pointer-events="none" x1="21" y1="48.19199999999998" x2="27" y2="48.19199999999998" stroke="rgb(102,102,102)" stroke-width="1"/></g><g><text pointer-events="all" x="-3" dy=".35em" transform="translate(21,48.19199999999998)" fill="rgb(102,102,102)" text-anchor="end" style="font: 9px sans-serif;">8</text></g><g><line shape-rendering="crispEdges" pointer-events="none" x1="21" y1="24.096000000000004" x2="27" y2="24.096000000000004" stroke="rgb(102,102,102)" stroke-width="1"/></g><g><text pointer-events="all" x="-3" dy=".35em" transform="translate(21,24.096000000000004)" fill="rgb(102,102,102)" text-anchor="end" style="font: 9px sans-serif;">9</text></g><g><line shape-rendering="crispEdges" pointer-events="none" x1="21" y1="0" x2="27" y2="0" stroke="rgb(102,102,102)" stroke-width="1"/></g><g><text pointer-events="all" x="-3" dy=".35em" transform="translate(21,0)" fill="rgb(102,102,102)" text-anchor="end" style="font: 9px sans-serif;">10</text></g></g><g transform="translate(0,10.04)"><line shape-rendering="crispEdges" pointer-events="none" x1="27" y1="-10.039999999999992" x2="27" y2="240.96" stroke="rgb(102,102,102)" stroke-width="1" stroke-linecap="square"/></g></g></g><g transform="translate(0,4)"><g transform="translate(27,0)"><g transform="translate(0,10.04)"><g><g><g pointer-events="none"/><g/></g></g><g><g><g pointer-events="none"><path pointer-events="none" cursor="pointer" d="M70.25,135.90143999999998C82.34781447525215,124.19958656199563,128.40218552474786,79.65257343800437,140.5,67.95072000000002C152.59781447525214,56.248866561995676,190.20512975778016,-7.681190331083515,210.75,0C231.29487024221984,7.681190331083515,275.0586228772811,110.29043251608293,281,120.48C286.9413771227189,130.6695674839171,329.6480299495204,234.69892805075844,351.25,240.96C372.8519700504796,247.22107194924158,411.2699183542474,172.816879098681,421.5,161.20224000000002C431.7300816457526,149.58760090131904,468.78554345966245,84.66701933927673,491.75,81.44448C514.7144565403376,78.22194066072326,538.586238394766,78.4089506045678,562,78.14814719999998C585.413761605234,77.88734379543216,608.8373108842112,74.54665024393603,632.25,74.8518144C655.6626891157888,75.15697855606396,679.2074293725076,78.27929151351509,702.5,79.97944319999999C725.7925706274924,81.67959488648489,749.5308232453211,82.96568152329772,772.75,85.10707199999999C795.9691767546789,87.24846247670226,819.8706715276908,90.35909522964546,843,92.93706719999997C866.1293284723092,95.51503917035448,889.8468732778474,100.20414407797185,913.25,100.76706239999999C936.6531267221526,101.32998072202813,960.1769421021297,97.79411122638972,983.5,96.31653119999999C1006.8230578978703,94.83895117361025,1030.588283882029,94.29603955379518,1053.75,91.86599999999999C1076.911716117971,89.43596044620479,1101.0752142678728,84.93381824315193,1124,81.57580320000002C1146.9247857321272,78.21778815684812,1171.0736530971888,68.92557796485039,1194.25,71.2856064C1217.4263469028112,73.64563483514962,1243.6406229172849,88.57914194407186,1264.5,95.88280320000001C1285.3593770827151,103.18646445592816,1313.8906229172849,113.17633874407186,1334.75,120.48" stroke="rgb(31,119,180)"/></g><g><path cursor="pointer" d="M70.25,135.90143999999998C82.34781447525215,124.19958656199563,128.40218552474786,79.65257343800437,140.5,67.95072000000002" shape-rendering="crispEdges" fill="rgb(127,127,127)" fill-opacity="0.005" stroke="rgb(127,127,127)" stroke-opacity="0.005" stroke-width="10"/><path cursor="pointer" d="M140.5,67.95072000000002C152.59781447525214,56.248866561995676,190.20512975778016,-7.681190331083515,210.75,0" shape-rendering="crispEdges" fill="rgb(127,127,127)" fill-opacity="0.005" stroke="rgb(127,127,127)" stroke-opacity="0.005" stroke-width="10"/><path cursor="pointer" d="M210.75,0C231.29487024221984,7.681190331083515,275.0586228772811,110.29043251608293,281,120.48" shape-rendering="crispEdges" fill="rgb(127,127,127)" fill-opacity="0.005" stroke="rgb(127,127,127)" stroke-opacity="0.005" stroke-width="10"/><path cursor="pointer" d="M281,120.48C286.9413771227189,130.6695674839171,329.6480299495204,234.69892805075844,351.25,240.96" shape-rendering="crispEdges" fill="rgb(127,127,127)" fill-opacity="0.005" stroke="rgb(127,127,127)" stroke-opacity="0.005" stroke-width="10"/><path cursor="pointer" d="M351.25,240.96C372.8519700504796,247.22107194924158,411.2699183542474,172.816879098681,421.5,161.20224000000002" shape-rendering="crispEdges" fill="rgb(127,127,127)" fill-opacity="0.005" stroke="rgb(127,127,127)" stroke-opacity="0.005" stroke-width="10"/><path cursor="pointer" d="M421.5,161.20224000000002C431.7300816457526,149.58760090131904,468.78554345966245,84.66701933927673,491.75,81.44448" shape-rendering="crispEdges" fill="rgb(127,127,127)" fill-opacity="0.005" stroke="rgb(127,127,127)" stroke-opacity="0.005" stroke-width="10"/><path cursor="pointer" d="M491.75,81.44448C514.7144565403376,78.22194066072326,538.586238394766,78.4089506045678,562,78.14814719999998" shape-rendering="crispEdges" fill="rgb(127,127,127)" fill-opacity="0.005" stroke="rgb(127,127,127)" stroke-opacity="0.005" stroke-width="10"/><path cursor="pointer" d="M562,78.14814719999998C585.413761605234,77.88734379543216,608.8373108842112,74.54665024393603,632.25,74.8518144" shape-rendering="crispEdges" fill="rgb(127,127,127)" fill-opacity="0.005" stroke="rgb(127,127,127)" stroke-opacity="0.005" stroke-width="10"/><path cursor="pointer" d="M632.25,74.8518144C655.6626891157888,75.15697855606396,679.2074293725076,78.27929151351509,702.5,79.97944319999999" shape-rendering="crispEdges" fill="rgb(127,127,127)" fill-opacity="0.005" stroke="rgb(127,127,127)" stroke-opacity="0.005" stroke-width="10"/><path cursor="pointer" d="M702.5,79.97944319999999C725.7925706274924,81.67959488648489,749.5308232453211,82.96568152329772,772.75,85.10707199999999" shape-rendering="crispEdges" fill="rgb(127,127,127)" fill-opacity="0.005" stroke="rgb(127,127,127)" stroke-opacity="0.005" stroke-width="10"/><path cursor="pointer" d="M772.75,85.10707199999999C795.9691767546789,87.24846247670226,819.8706715276908,90.35909522964546,843,92.93706719999997" shape-rendering="crispEdges" fill="rgb(127,127,127)" fill-opacity="0.005" stroke="rgb(127,127,127)" stroke-opacity="0.005" stroke-width="10"/><path cursor="pointer" d="M843,92.93706719999997C866.1293284723092,95.51503917035448,889.8468732778474,100.20414407797185,913.25,100.76706239999999" shape-rendering="crispEdges" fill="rgb(127,127,127)" fill-opacity="0.005" stroke="rgb(127,127,127)" stroke-opacity="0.005" stroke-width="10"/><path cursor="pointer" d="M913.25,100.76706239999999C936.6531267221526,101.32998072202813,960.1769421021297,97.79411122638972,983.5,96.31653119999999" shape-rendering="crispEdges" fill="rgb(127,127,127)" fill-opacity="0.005" stroke="rgb(127,127,127)" stroke-opacity="0.005" stroke-width="10"/><path cursor="pointer" d="M983.5,96.31653119999999C1006.8230578978703,94.83895117361025,1030.588283882029,94.29603955379518,1053.75,91.86599999999999" shape-rendering="crispEdges" fill="rgb(127,127,127)" fill-opacity="0.005" stroke="rgb(127,127,127)" stroke-opacity="0.005" stroke-width="10"/><path cursor="pointer" d="M1053.75,91.86599999999999C1076.911716117971,89.43596044620479,1101.0752142678728,84.93381824315193,1124,81.57580320000002" shape-rendering="crispEdges" fill="rgb(127,127,127)" fill-opacity="0.005" stroke="rgb(127,127,127)" stroke-opacity="0.005" stroke-width="10"/><path cursor="pointer" d="M1124,81.57580320000002C1146.9247857321272,78.21778815684812,1171.0736530971888,68.92557796485039,1194.25,71.2856064" shape-rendering="crispEdges" fill="rgb(127,127,127)" fill-opacity="0.005" stroke="rgb(127,127,127)" stroke-opacity="0.005" stroke-width="10"/><path cursor="pointer" d="M1194.25,71.2856064C1217.4263469028112,73.64563483514962,1243.6406229172849,88.57914194407186,1264.5,95.88280320000001" shape-rendering="crispEdges" fill="rgb(127,127,127)" fill-opacity="0.005" stroke="rgb(127,127,127)" stroke-opacity="0.005" stroke-width="10"/><path cursor="pointer" d="M1264.5,95.88280320000001C1285.3593770827151,103.18646445592816,1313.8906229172849,113.17633874407186,1334.75,120.48" shape-rendering="crispEdges" fill="rgb(127,127,127)" fill-opacity="0.005" stroke="rgb(127,127,127)" stroke-opacity="0.005" stroke-width="10"/></g></g></g><g><circle cursor="pointer" fill="rgb(127,127,127)" fill-opacity="0.00001" stroke="rgb(127,127,127)" stroke-opacity="0.00001" cx="70.25" cy="135.90143999999998" r="3.4641016151377544"/><circle cursor="pointer" fill="rgb(127,127,127)" stroke="rgb(127,127,127)" cx="210.75" cy="0" r="3.4641016151377544" fill-opacity="0.00001" stroke-opacity="0.00001"/><circle cursor="pointer" fill="rgb(127,127,127)" stroke="rgb(127,127,127)" cx="351.25" cy="240.96" r="3.4641016151377544" fill-opacity="0.00001" stroke-opacity="0.00001"/><circle cursor="pointer" fill="rgb(127,127,127)" fill-opacity="0.00001" stroke="rgb(127,127,127)" stroke-opacity="0.00001" cx="491.75" cy="81.44448" r="3.4641016151377544"/><circle cursor="pointer" fill="rgb(127,127,127)" fill-opacity="0.00001" stroke="rgb(127,127,127)" stroke-opacity="0.00001" cx="632.25" cy="74.8518144" r="3.4641016151377544"/><circle cursor="pointer" fill="rgb(127,127,127)" fill-opacity="0.00001" stroke="rgb(127,127,127)" stroke-opacity="0.00001" cx="772.75" cy="85.10707199999999" r="3.4641016151377544"/><circle cursor="pointer" fill="rgb(127,127,127)" fill-opacity="0.00001" stroke="rgb(127,127,127)" stroke-opacity="0.00001" cx="913.25" cy="100.76706239999999" r="3.4641016151377544"/><circle cursor="pointer" fill="rgb(127,127,127)" stroke="rgb(127,127,127)" cx="1053.75" cy="91.86599999999999" r="3.4641016151377544" fill-opacity="0.00001" stroke-opacity="0.00001"/><circle cursor="pointer" fill="rgb(127,127,127)" fill-opacity="0.00001" stroke="rgb(127,127,127)" stroke-opacity="0.00001" cx="1194.25" cy="71.2856064" r="3.4641016151377544"/><circle cursor="pointer" fill="rgb(127,127,127)" stroke="rgb(127,127,127)" cx="1334.75" cy="120.48" r="3.4641016151377544" fill-opacity="0.00001" stroke-opacity="0.00001"/></g><g><g><g pointer-events="none"/><g/></g></g><g><g><g pointer-events="none"><path pointer-events="none" cursor="pointer" d="M70.25,192.768C88.76535951688828,183.2417486921223,121.98464048311173,166.15025130787774,140.5,156.62400000000002C159.01535951688828,147.0977486921223,188.00240516296935,116.57874700930186,210.75,120.48C233.49759483703065,124.38125299069814,267.50586271330735,169.14865722205886,281,180.72C294.49413728669265,192.29134277794114,328.13848467740513,238.3043437789831,351.25,240.96C374.36151532259487,243.6156562210169,404.70185239979895,207.40845866435922,421.5,196.86432000000002C438.29814760020105,186.32018133564083,471.4811518144023,160.75629640902298,491.75,152.76864C512.0188481855977,144.78098359097703,539.171219487835,145.15875703087835,562,141.49532639999998C584.828780512165,137.83189576912162,608.8899279642117,131.37181915506932,632.25,130.22201280000002C655.6100720357883,129.0722064449307,679.1730951010786,133.13275531935417,702.5,134.57977440000002C725.8269048989214,136.02679348064586,749.3445069536733,138.42614173608115,772.75,138.93753600000002C796.1554930463267,139.4489302639189,819.5912014681886,138.07877094923325,843,137.64960480000002C866.4087985318114,137.2204386507668,889.858157820276,135.5996431014275,913.25,136.36167360000002C936.641842179724,137.12370409857255,960.2454198550041,140.28518332816358,983.5,142.22664C1006.7545801449959,144.16809667183642,1030.386232592862,149.20332848561065,1053.75,148.09160640000002C1077.113767407138,146.97988431438938,1101.3076073069155,139.59527798951055,1124,135.5412048C1146.6923926930845,131.48713161048946,1171.168796301194,120.20819846799101,1194.25,122.9908032C1217.331203698806,125.773407932009,1244.5913384160713,144.12247381867124,1264.5,152.479488C1284.4086615839287,160.83650218132877,1314.8413384160713,173.61115861867125,1334.75,181.96817280000002" stroke="rgb(174,199,232)"/></g><g><path cursor="pointer" d="M70.25,192.768C88.76535951688828,183.2417486921223,121.98464048311173,166.15025130787774,140.5,156.62400000000002" shape-rendering="crispEdges" fill="rgb(127,127,127)" fill-opacity="0.005" stroke="rgb(127,127,127)" stroke-opacity="0.005" stroke-width="10"/><path cursor="pointer" d="M140.5,156.62400000000002C159.01535951688828,147.0977486921223,188.00240516296935,116.57874700930186,210.75,120.48" shape-rendering="crispEdges" fill="rgb(127,127,127)" fill-opacity="0.005" stroke="rgb(127,127,127)" stroke-opacity="0.005" stroke-width="10"/><path cursor="pointer" d="M210.75,120.48C233.49759483703065,124.38125299069814,267.50586271330735,169.14865722205886,281,180.72" shape-rendering="crispEdges" fill="rgb(127,127,127)" fill-opacity="0.005" stroke="rgb(127,127,127)" stroke-opacity="0.005" stroke-width="10"/><path cursor="pointer" d="M281,180.72C294.49413728669265,192.29134277794114,328.13848467740513,238.3043437789831,351.25,240.96" shape-rendering="crispEdges" fill="rgb(127,127,127)" fill-opacity="0.005" stroke="rgb(127,127,127)" stroke-opacity="0.005" stroke-width="10"/><path cursor="pointer" d="M351.25,240.96C374.36151532259487,243.6156562210169,404.70185239979895,207.40845866435922,421.5,196.86432000000002" shape-rendering="crispEdges" fill="rgb(127,127,127)" fill-opacity="0.005" stroke="rgb(127,127,127)" stroke-opacity="0.005" stroke-width="10"/><path cursor="pointer" d="M421.5,196.86432000000002C438.29814760020105,186.32018133564083,471.4811518144023,160.75629640902298,491.75,152.76864" shape-rendering="crispEdges" fill="rgb(127,127,127)" fill-opacity="0.005" stroke="rgb(127,127,127)" stroke-opacity="0.005" stroke-width="10"/><path cursor="pointer" d="M491.75,152.76864C512.0188481855977,144.78098359097703,539.171219487835,145.15875703087835,562,141.49532639999998" shape-rendering="crispEdges" fill="rgb(127,127,127)" fill-opacity="0.005" stroke="rgb(127,127,127)" stroke-opacity="0.005" stroke-width="10"/><path cursor="pointer" d="M562,141.49532639999998C584.828780512165,137.83189576912162,608.8899279642117,131.37181915506932,632.25,130.22201280000002" shape-rendering="crispEdges" fill="rgb(127,127,127)" fill-opacity="0.005" stroke="rgb(127,127,127)" stroke-opacity="0.005" stroke-width="10"/><path cursor="pointer" d="M632.25,130.22201280000002C655.6100720357883,129.0722064449307,679.1730951010786,133.13275531935417,702.5,134.57977440000002" shape-rendering="crispEdges" fill="rgb(127,127,127)" fill-opacity="0.005" stroke="rgb(127,127,127)" stroke-opacity="0.005" stroke-width="10"/><path cursor="pointer" d="M702.5,134.57977440000002C725.8269048989214,136.02679348064586,749.3445069536733,138.42614173608115,772.75,138.93753600000002" shape-rendering="crispEdges" fill="rgb(127,127,127)" fill-opacity="0.005" stroke="rgb(127,127,127)" stroke-opacity="0.005" stroke-width="10"/><path cursor="pointer" d="M772.75,138.93753600000002C796.1554930463267,139.4489302639189,819.5912014681886,138.07877094923325,843,137.64960480000002" shape-rendering="crispEdges" fill="rgb(127,127,127)" fill-opacity="0.005" stroke="rgb(127,127,127)" stroke-opacity="0.005" stroke-width="10"/><path cursor="pointer" d="M843,137.64960480000002C866.4087985318114,137.2204386507668,889.858157820276,135.5996431014275,913.25,136.36167360000002" shape-rendering="crispEdges" fill="rgb(127,127,127)" fill-opacity="0.005" stroke="rgb(127,127,127)" stroke-opacity="0.005" stroke-width="10"/><path cursor="pointer" d="M913.25,136.36167360000002C936.641842179724,137.12370409857255,960.2454198550041,140.28518332816358,983.5,142.22664" shape-rendering="crispEdges" fill="rgb(127,127,127)" fill-opacity="0.005" stroke="rgb(127,127,127)" stroke-opacity="0.005" stroke-width="10"/><path cursor="pointer" d="M983.5,142.22664C1006.7545801449959,144.16809667183642,1030.386232592862,149.20332848561065,1053.75,148.09160640000002" shape-rendering="crispEdges" fill="rgb(127,127,127)" fill-opacity="0.005" stroke="rgb(127,127,127)" stroke-opacity="0.005" stroke-width="10"/><path cursor="pointer" d="M1053.75,148.09160640000002C1077.113767407138,146.97988431438938,1101.3076073069155,139.59527798951055,1124,135.5412048" shape-rendering="crispEdges" fill="rgb(127,127,127)" fill-opacity="0.005" stroke="rgb(127,127,127)" stroke-opacity="0.005" stroke-width="10"/><path cursor="pointer" d="M1124,135.5412048C1146.6923926930845,131.48713161048946,1171.168796301194,120.20819846799101,1194.25,122.9908032" shape-rendering="crispEdges" fill="rgb(127,127,127)" fill-opacity="0.005" stroke="rgb(127,127,127)" stroke-opacity="0.005" stroke-width="10"/><path cursor="pointer" d="M1194.25,122.9908032C1217.331203698806,125.773407932009,1244.5913384160713,144.12247381867124,1264.5,152.479488" shape-rendering="crispEdges" fill="rgb(127,127,127)" fill-opacity="0.005" stroke="rgb(127,127,127)" stroke-opacity="0.005" stroke-width="10"/><path cursor="pointer" d="M1264.5,152.479488C1284.4086615839287,160.83650218132877,1314.8413384160713,173.61115861867125,1334.75,181.96817280000002" shape-rendering="crispEdges" fill="rgb(127,127,127)" fill-opacity="0.005" stroke="rgb(127,127,127)" stroke-opacity="0.005" stroke-width="10"/></g></g></g><g><circle cursor="pointer" fill="rgb(127,127,127)" fill-opacity="0.00001" stroke="rgb(127,127,127)" stroke-opacity="0.00001" cx="70.25" cy="192.768" r="3.4641016151377544"/><circle cursor="pointer" fill="rgb(127,127,127)" fill-opacity="0.00001" stroke="rgb(127,127,127)" stroke-opacity="0.00001" cx="210.75" cy="120.48" r="3.4641016151377544"/><circle cursor="pointer" fill="rgb(127,127,127)" fill-opacity="0.00001" stroke="rgb(127,127,127)" stroke-opacity="0.00001" cx="351.25" cy="240.96" r="3.4641016151377544"/><circle cursor="pointer" fill="rgb(127,127,127)" fill-opacity="0.00001" stroke="rgb(127,127,127)" stroke-opacity="0.00001" cx="491.75" cy="152.76864" r="3.4641016151377544"/><circle cursor="pointer" fill="rgb(127,127,127)" fill-opacity="0.00001" stroke="rgb(127,127,127)" stroke-opacity="0.00001" cx="632.25" cy="130.22201280000002" r="3.4641016151377544"/><circle cursor="pointer" fill="rgb(127,127,127)" fill-opacity="0.00001" stroke="rgb(127,127,127)" stroke-opacity="0.00001" cx="772.75" cy="138.93753600000002" r="3.4641016151377544"/><circle cursor="pointer" fill="rgb(127,127,127)" stroke="rgb(127,127,127)" cx="913.25" cy="136.36167360000002" r="3.4641016151377544" fill-opacity="0.00001" stroke-opacity="0.00001"/><circle cursor="pointer" fill="rgb(127,127,127)" fill-opacity="0.00001" stroke="rgb(127,127,127)" stroke-opacity="0.00001" cx="1053.75" cy="148.09160640000002" r="3.4641016151377544"/><circle cursor="pointer" fill="rgb(127,127,127)" fill-opacity="0.00001" stroke="rgb(127,127,127)" stroke-opacity="0.00001" cx="1194.25" cy="122.9908032" r="3.4641016151377544"/><circle cursor="pointer" fill="rgb(127,127,127)" fill-opacity="0.00001" stroke="rgb(127,127,127)" stroke-opacity="0.00001" cx="1334.75" cy="181.96817280000002" r="3.4641016151377544"/></g><g><g><g pointer-events="none"/><g/></g></g><g><g><g pointer-events="none"><path pointer-events="none" cursor="pointer" d="M70.25,194.69568C92.29403403230604,189.19492000653554,118.45596596769396,182.66659999346447,140.5,177.16584C162.54403403230606,171.66508000653553,187.95133430379371,155.88238873543662,210.75,159.636C233.54866569620629,163.38961126456337,263.45983120611174,190.145425715344,281,200.298C298.54016879388826,210.450574284656,327.84731093795733,241.53193840127085,351.25,240.96C374.65268906204267,240.38806159872917,404.70185239979895,207.40845866435922,421.5,196.86432000000002C438.29814760020105,186.32018133564083,471.5824839940697,160.86353332579992,491.75,152.76864C511.9175160059303,144.6737466742001,539.2796917086022,144.4476636242006,562,140.4700416C584.7203082913978,136.4924195757994,608.9338007919055,129.70197228433636,632.25,128.1714432C655.5661992080945,126.64091411566363,679.1281389218775,130.22397458600238,702.5,131.2472976C725.8718610781225,132.2706206139976,749.3977949103476,133.09623718354473,772.75,134.323152C796.1022050896524,135.55006681645526,819.6709814975886,137.19916117108392,843,138.6291072C866.3290185024114,140.05905322891607,889.8935644120653,141.7489834351776,913.25,142.9350624C936.6064355879347,144.1211413648224,960.1212434267575,144.82250258706262,983.5,145.7639328C1006.8787565732425,146.70536301293737,1030.4507057228739,150.24649417594333,1053.75,148.5928032C1077.0492942771261,146.93911222405666,1101.3358809434865,139.92167349241893,1124,135.7918032C1146.6641190565135,131.66193290758108,1171.0181726438043,120.91856891076057,1194.25,122.9908032C1217.4818273561957,125.06303748923943,1243.7781016300905,140.85146829690223,1264.5,148.3241328C1285.2218983699095,155.79679730309778,1314.0281016300905,166.1847978969022,1334.75,173.6574624" stroke="rgb(255,127,14)"/></g><g><path cursor="pointer" d="M70.25,194.69568C92.29403403230604,189.19492000653554,118.45596596769396,182.66659999346447,140.5,177.16584" shape-rendering="crispEdges" fill="rgb(127,127,127)" fill-opacity="0.005" stroke="rgb(127,127,127)" stroke-opacity="0.005" stroke-width="10"/><path cursor="pointer" d="M140.5,177.16584C162.54403403230606,171.66508000653553,187.95133430379371,155.88238873543662,210.75,159.636" shape-rendering="crispEdges" fill="rgb(127,127,127)" fill-opacity="0.005" stroke="rgb(127,127,127)" stroke-opacity="0.005" stroke-width="10"/><path cursor="pointer" d="M210.75,159.636C233.54866569620629,163.38961126456337,263.45983120611174,190.145425715344,281,200.298" shape-rendering="crispEdges" fill="rgb(127,127,127)" fill-opacity="0.005" stroke="rgb(127,127,127)" stroke-opacity="0.005" stroke-width="10"/><path cursor="pointer" d="M281,200.298C298.54016879388826,210.450574284656,327.84731093795733,241.53193840127085,351.25,240.96" shape-rendering="crispEdges" fill="rgb(127,127,127)" fill-opacity="0.005" stroke="rgb(127,127,127)" stroke-opacity="0.005" stroke-width="10"/><path cursor="pointer" d="M351.25,240.96C374.65268906204267,240.38806159872917,404.70185239979895,207.40845866435922,421.5,196.86432000000002" shape-rendering="crispEdges" fill="rgb(127,127,127)" fill-opacity="0.005" stroke="rgb(127,127,127)" stroke-opacity="0.005" stroke-width="10"/><path cursor="pointer" d="M421.5,196.86432000000002C438.29814760020105,186.32018133564083,471.5824839940697,160.86353332579992,491.75,152.76864" shape-rendering="crispEdges" fill="rgb(127,127,127)" fill-opacity="0.005" stroke="rgb(127,127,127)" stroke-opacity="0.005" stroke-width="10"/><path cursor="pointer" d="M491.75,152.76864C511.9175160059303,144.6737466742001,539.2796917086022,144.4476636242006,562,140.4700416" shape-rendering="crispEdges" fill="rgb(127,127,127)" fill-opacity="0.005" stroke="rgb(127,127,127)" stroke-opacity="0.005" stroke-width="10"/><path cursor="pointer" d="M562,140.4700416C584.7203082913978,136.4924195757994,608.9338007919055,129.70197228433636,632.25,128.1714432" shape-rendering="crispEdges" fill="rgb(127,127,127)" fill-opacity="0.005" stroke="rgb(127,127,127)" stroke-opacity="0.005" stroke-width="10"/><path cursor="pointer" d="M632.25,128.1714432C655.5661992080945,126.64091411566363,679.1281389218775,130.22397458600238,702.5,131.2472976" shape-rendering="crispEdges" fill="rgb(127,127,127)" fill-opacity="0.005" stroke="rgb(127,127,127)" stroke-opacity="0.005" stroke-width="10"/><path cursor="pointer" d="M702.5,131.2472976C725.8718610781225,132.2706206139976,749.3977949103476,133.09623718354473,772.75,134.323152" shape-rendering="crispEdges" fill="rgb(127,127,127)" fill-opacity="0.005" stroke="rgb(127,127,127)" stroke-opacity="0.005" stroke-width="10"/><path cursor="pointer" d="M772.75,134.323152C796.1022050896524,135.55006681645526,819.6709814975886,137.19916117108392,843,138.6291072" shape-rendering="crispEdges" fill="rgb(127,127,127)" fill-opacity="0.005" stroke="rgb(127,127,127)" stroke-opacity="0.005" stroke-width="10"/><path cursor="pointer" d="M843,138.6291072C866.3290185024114,140.05905322891607,889.8935644120653,141.7489834351776,913.25,142.9350624" shape-rendering="crispEdges" fill="rgb(127,127,127)" fill-opacity="0.005" stroke="rgb(127,127,127)" stroke-opacity="0.005" stroke-width="10"/><path cursor="pointer" d="M913.25,142.9350624C936.6064355879347,144.1211413648224,960.1212434267575,144.82250258706262,983.5,145.7639328" shape-rendering="crispEdges" fill="rgb(127,127,127)" fill-opacity="0.005" stroke="rgb(127,127,127)" stroke-opacity="0.005" stroke-width="10"/><path cursor="pointer" d="M983.5,145.7639328C1006.8787565732425,146.70536301293737,1030.4507057228739,150.24649417594333,1053.75,148.5928032" shape-rendering="crispEdges" fill="rgb(127,127,127)" fill-opacity="0.005" stroke="rgb(127,127,127)" stroke-opacity="0.005" stroke-width="10"/><path cursor="pointer" d="M1053.75,148.5928032C1077.0492942771261,146.93911222405666,1101.3358809434865,139.92167349241893,1124,135.7918032" shape-rendering="crispEdges" fill="rgb(127,127,127)" fill-opacity="0.005" stroke="rgb(127,127,127)" stroke-opacity="0.005" stroke-width="10"/><path cursor="pointer" d="M1124,135.7918032C1146.6641190565135,131.66193290758108,1171.0181726438043,120.91856891076057,1194.25,122.9908032" shape-rendering="crispEdges" fill="rgb(127,127,127)" fill-opacity="0.005" stroke="rgb(127,127,127)" stroke-opacity="0.005" stroke-width="10"/><path cursor="pointer" d="M1194.25,122.9908032C1217.4818273561957,125.06303748923943,1243.7781016300905,140.85146829690223,1264.5,148.3241328" shape-rendering="crispEdges" fill="rgb(127,127,127)" fill-opacity="0.005" stroke="rgb(127,127,127)" stroke-opacity="0.005" stroke-width="10"/><path cursor="pointer" d="M1264.5,148.3241328C1285.2218983699095,155.79679730309778,1314.0281016300905,166.1847978969022,1334.75,173.6574624" shape-rendering="crispEdges" fill="rgb(127,127,127)" fill-opacity="0.005" stroke="rgb(127,127,127)" stroke-opacity="0.005" stroke-width="10"/></g></g></g><g><circle cursor="pointer" fill="rgb(127,127,127)" fill-opacity="0.00001" stroke="rgb(127,127,127)" stroke-opacity="0.00001" cx="70.25" cy="194.69568" r="3.4641016151377544"/><circle cursor="pointer" fill="rgb(127,127,127)" fill-opacity="0.00001" stroke="rgb(127,127,127)" stroke-opacity="0.00001" cx="210.75" cy="159.636" r="3.4641016151377544"/><circle cursor="pointer" fill="rgb(127,127,127)" fill-opacity="0.00001" stroke="rgb(127,127,127)" stroke-opacity="0.00001" cx="351.25" cy="240.96" r="3.4641016151377544"/><circle cursor="pointer" fill="rgb(127,127,127)" fill-opacity="0.00001" stroke="rgb(127,127,127)" stroke-opacity="0.00001" cx="491.75" cy="152.76864" r="3.4641016151377544"/><circle cursor="pointer" fill="rgb(127,127,127)" fill-opacity="0.00001" stroke="rgb(127,127,127)" stroke-opacity="0.00001" cx="632.25" cy="128.1714432" r="3.4641016151377544"/><circle cursor="pointer" fill="rgb(127,127,127)" fill-opacity="0.00001" stroke="rgb(127,127,127)" stroke-opacity="0.00001" cx="772.75" cy="134.323152" r="3.4641016151377544"/><circle cursor="pointer" fill="rgb(127,127,127)" stroke="rgb(127,127,127)" cx="913.25" cy="142.9350624" r="3.4641016151377544" fill-opacity="0.00001" stroke-opacity="0.00001"/><circle cursor="pointer" fill="rgb(127,127,127)" fill-opacity="0.00001" stroke="rgb(127,127,127)" stroke-opacity="0.00001" cx="1053.75" cy="148.5928032" r="3.4641016151377544"/><circle cursor="pointer" fill="rgb(127,127,127)" fill-opacity="0.00001" stroke="rgb(127,127,127)" stroke-opacity="0.00001" cx="1194.25" cy="122.9908032" r="3.4641016151377544"/><circle cursor="pointer" fill="rgb(127,127,127)" fill-opacity="0.00001" stroke="rgb(127,127,127)" stroke-opacity="0.00001" cx="1334.75" cy="173.6574624" r="3.4641016151377544"/></g></g></g></g></g></g></g><g/><rect pointer-events="stroke" width="1438" height="318" stroke-opacity="0"/></svg>